<?xml version="1.0" standalone="no"?>
<!DOCTYPE svg PUBLIC "-//W3C//DTD SVG 20010904//EN"
 "http://www.w3.org/TR/2001/REC-SVG-20010904/DTD/svg10.dtd">
<svg version="1.0" xmlns="http://www.w3.org/2000/svg"
 width="1027.000000pt" height="1027.000000pt" viewBox="0 0 1027.000000 1027.000000"
 preserveAspectRatio="xMidYMid meet">
<metadata>
Created by potrace 1.14, written by Peter Selinger 2001-2017
</metadata>
<g transform="translate(0.000000,1027.000000) scale(0.100000,-0.100000)"
fill="#000000" stroke="none">
<path d="M5870 10232 c0 -6 5 -14 10 -17 6 -4 8 -10 5 -15 -3 -5 4 -7 16 -5
12 2 18 1 15 -3 -13 -12 -30 -9 -60 12 -19 12 -26 15 -21 5 10 -15 16 -39 9
-39 -2 0 -10 12 -18 28 -8 15 -15 21 -16 14 0 -8 -9 -12 -22 -10 -13 2 -22 9
-20 16 1 8 -2 11 -9 6 -9 -5 -6 -12 10 -25 21 -17 21 -18 1 -16 -11 1 -20 5
-20 9 0 3 -9 6 -20 5 -11 -1 -20 -5 -20 -10 0 -5 7 -7 15 -3 13 4 14 2 5 -14
-6 -11 -13 -20 -16 -20 -3 0 -3 4 1 9 3 5 1 12 -4 15 -5 4 -12 2 -16 -4 -10
-16 -26 -11 -23 7 2 10 -1 18 -7 18 -5 0 -17 4 -25 10 -13 8 -13 7 -1 -8 7 -9
18 -14 24 -10 6 3 7 1 3 -6 -4 -6 -12 -9 -17 -6 -5 4 -19 8 -31 10 -23 4 -23
4 -3 -12 18 -14 18 -15 2 -9 -10 3 -23 6 -28 6 -4 0 -5 8 -2 18 6 16 6 16 -10
0 -10 -10 -28 -15 -45 -13 -15 2 -21 2 -14 -1 6 -3 9 -11 6 -16 -5 -7 -2 -8 7
-4 8 4 6 1 -3 -7 -10 -8 -14 -18 -10 -23 4 -4 0 -3 -9 3 -12 10 -22 8 -46 -6
l-30 -19 2 29 c1 16 -1 26 -6 23 -5 -3 -7 -9 -5 -13 3 -4 1 -13 -5 -21 -7 -13
-9 -12 -9 3 0 25 -20 21 -60 -13 -22 -19 -27 -28 -15 -23 18 6 19 5 6 -11 -14
-17 -16 -17 -29 1 -13 16 -14 16 -9 1 6 -18 -6 -23 -43 -19 -13 2 -13 0 -1 -8
8 -5 23 -8 33 -6 10 2 16 0 13 -5 -3 -4 -13 -7 -23 -5 -9 1 -23 -2 -29 -8 -9
-6 -13 -6 -13 2 0 7 -5 9 -11 5 -8 -4 -7 -9 2 -15 8 -5 10 -9 5 -9 -5 0 -3 -7
4 -15 11 -13 10 -14 -4 -9 -9 3 -16 11 -16 17 0 6 -3 8 -6 4 -9 -9 22 -48 32
-39 4 4 2 -1 -5 -10 -7 -10 -16 -18 -19 -18 -3 0 -2 3 1 7 8 7 -11 33 -24 33
-4 0 -11 -9 -14 -20 -5 -17 -10 -18 -28 -9 -12 7 -19 8 -15 4 4 -4 0 -14 -8
-22 -8 -8 -12 -19 -9 -24 4 -5 2 -9 -4 -9 -5 0 -11 3 -14 8 -2 4 -2 2 -1 -5 2
-7 -1 -15 -6 -18 -6 -4 -10 -1 -10 5 0 6 -4 8 -10 5 -14 -9 -12 8 3 25 10 12
9 12 -6 0 -10 -7 -16 -19 -13 -25 2 -7 -1 -18 -7 -24 -7 -7 -7 -12 -2 -11 22
5 36 -1 29 -11 -5 -8 -9 -8 -14 1 -4 6 -11 12 -16 13 -5 1 -9 12 -8 24 1 12
-3 20 -8 17 -4 -3 -5 -10 -2 -16 5 -7 1 -9 -9 -5 -10 4 -16 2 -14 -6 1 -7 -4
-11 -12 -9 -8 2 -11 -3 -8 -12 7 -19 -9 -31 -19 -15 -5 8 -3 9 7 4 8 -5 10 -4
6 0 -4 5 -14 10 -22 11 -12 2 -12 -1 0 -20 12 -17 12 -23 3 -24 -7 0 -22 -3
-33 -6 -11 -2 -27 -5 -35 -5 -13 -1 -13 -2 0 -11 12 -7 11 -9 -5 -9 -33 1 -59
-7 -63 -19 -2 -6 -10 -8 -18 -5 -7 3 -11 9 -8 14 3 5 10 6 16 3 7 -4 8 -2 4 4
-4 7 1 10 14 7 11 -2 20 0 20 6 0 5 3 8 8 7 4 -1 17 3 30 10 12 7 27 10 32 7
5 -3 12 0 15 6 11 17 -2 22 -25 9 -20 -11 -21 -10 -15 9 4 12 2 21 -4 21 -6 0
-10 -3 -10 -7 4 -22 -2 -43 -10 -38 -5 3 -12 1 -16 -5 -3 -5 -11 -10 -18 -10
-8 0 -8 3 1 12 7 7 12 16 12 20 0 9 -58 4 -68 -7 -4 -4 2 -5 14 -1 15 4 21 2
21 -9 0 -9 -5 -14 -11 -12 -19 7 -58 -12 -50 -25 5 -8 2 -9 -12 -4 -10 4 -16
4 -12 1 3 -4 -1 -15 -10 -25 -20 -24 -24 -47 -8 -53 16 -7 27 2 49 36 17 26
37 29 37 5 0 -6 -3 -8 -7 -5 -3 4 -12 -1 -19 -11 -15 -20 0 -56 19 -46 7 4 8
3 4 -1 -9 -11 -37 -16 -36 -7 3 18 -3 22 -19 13 -11 -6 -24 -6 -32 -1 -19 12
-41 -7 -33 -28 6 -15 5 -16 -13 -2 -18 14 -18 14 -1 -6 9 -11 17 -34 17 -50 0
-22 -3 -26 -10 -14 -5 8 -10 10 -10 4 0 -5 5 -15 12 -22 7 -7 8 -12 3 -12 -6
0 -3 -5 5 -10 11 -7 11 -10 2 -10 -7 0 -10 -5 -6 -12 4 -6 3 -8 -4 -4 -6 3 -9
15 -7 26 2 12 0 18 -6 15 -5 -4 -7 -10 -4 -15 3 -5 1 -11 -5 -15 -5 -3 -10
-12 -10 -18 0 -7 4 -6 11 3 8 12 10 9 6 -13 -2 -15 -1 -30 4 -32 4 -3 6 -15 4
-27 -3 -12 0 -28 7 -35 8 -10 7 -18 -6 -32 -12 -13 -14 -21 -6 -26 5 -3 8 -11
5 -16 -4 -5 -1 -9 4 -9 6 0 11 -13 11 -29 0 -20 6 -31 18 -34 14 -4 14 -5 -3
-6 -15 -1 -17 -3 -6 -10 7 -5 10 -14 6 -21 -6 -9 -9 -9 -15 0 -5 8 -9 7 -13
-5 -4 -9 -3 -14 2 -11 4 3 17 -4 27 -16 11 -12 13 -18 7 -14 -7 4 -13 2 -13
-4 0 -6 -5 -8 -12 -4 -7 5 -8 3 -2 -7 14 -22 15 -49 2 -49 -6 0 -3 -7 8 -16
14 -11 16 -17 6 -21 -10 -4 -9 -8 5 -19 14 -11 14 -13 2 -9 -10 4 -16 0 -16
-10 0 -8 4 -15 9 -15 5 0 6 -4 3 -10 -11 -17 -24 -11 -20 10 2 11 -1 20 -7 20
-5 0 -8 -6 -5 -14 3 -8 -5 -26 -18 -40 -13 -14 -19 -26 -13 -26 6 0 5 -7 -3
-17 -10 -11 -10 -14 -1 -9 6 4 12 2 12 -3 0 -6 -7 -11 -15 -11 -20 0 -19 -9 2
-32 14 -16 15 -21 3 -28 -10 -6 -11 -12 -3 -22 6 -7 12 -16 13 -20 4 -27 28
-67 35 -61 5 5 4 1 -2 -7 -10 -13 -7 -21 17 -43 15 -15 30 -24 33 -20 2 5 2 2
0 -5 -1 -8 -3 -20 -3 -28 0 -10 -5 -12 -12 -8 -9 5 -9 2 1 -9 7 -9 19 -17 25
-17 6 0 4 5 -4 11 -13 9 -13 10 0 6 10 -2 14 -13 12 -30 -2 -15 1 -27 8 -27 6
0 8 5 5 10 -3 6 -1 10 4 10 6 0 10 -10 8 -22 -1 -13 3 -22 9 -21 15 3 9 -48
-8 -59 -10 -7 -8 -8 5 -4 20 6 22 -4 5 -23 -8 -8 -8 -11 -2 -8 7 4 14 -2 17
-14 4 -14 10 -18 19 -13 10 6 10 4 -1 -9 -11 -14 -11 -17 0 -17 11 0 11 -2 -1
-10 -8 -5 -11 -10 -6 -10 5 0 2 -8 -5 -17 -8 -10 -9 -14 -2 -10 6 4 15 2 19
-4 4 -7 3 -9 -3 -6 -6 4 -19 -3 -29 -14 -13 -15 -15 -20 -4 -17 9 2 16 -6 18
-21 2 -13 0 -21 -6 -17 -5 3 -8 -7 -7 -22 1 -19 6 -26 18 -24 25 4 20 -6 -10
-22 -24 -12 -25 -15 -11 -21 15 -6 15 -9 3 -21 -19 -20 -30 -17 -14 4 11 14
11 15 -1 5 -15 -14 -23 -46 -9 -38 5 4 7 -7 5 -23 -2 -19 2 -29 10 -29 7 0 10
5 7 10 -3 6 -1 7 6 3 9 -6 9 -11 0 -22 -10 -12 -8 -13 7 -8 10 4 16 4 12 -1
-8 -8 20 -40 36 -40 6 0 9 -9 8 -20 -3 -15 -1 -17 10 -8 10 8 18 9 28 1 12 -8
11 -9 -4 -4 -15 5 -17 4 -8 -7 7 -8 9 -17 5 -21 -4 -4 1 -4 11 0 14 5 17 4 12
-4 -4 -7 -1 -12 9 -12 12 0 15 -5 11 -16 -4 -11 1 -18 14 -21 11 -3 20 -10 20
-15 0 -5 4 -6 10 -3 6 3 7 -1 4 -9 -3 -9 -2 -16 4 -16 5 0 13 -7 16 -16 3 -8
2 -12 -4 -9 -6 3 -10 1 -10 -4 0 -6 7 -11 16 -11 8 0 12 -4 9 -10 -3 -5 1 -10
10 -10 10 0 13 5 9 12 -5 7 -3 8 6 3 10 -6 7 -12 -11 -26 l-24 -18 25 6 c24 6
24 6 8 -10 -17 -17 -15 -47 3 -47 5 0 9 -5 9 -11 0 -5 -4 -7 -10 -4 -5 3 -10
-3 -10 -14 0 -12 -5 -21 -11 -21 -5 0 -7 5 -3 12 4 7 3 8 -5 4 -9 -6 -9 -11
-1 -21 8 -9 4 -12 -15 -10 -14 2 -25 -1 -25 -6 0 -6 7 -9 16 -7 10 2 19 -3 22
-11 3 -9 -1 -11 -17 -6 -19 6 -26 -2 -22 -27 0 -4 -5 -5 -13 -2 -7 3 -19 -3
-27 -13 -12 -16 -12 -17 1 -6 11 8 20 9 30 1 12 -8 12 -9 -2 -4 -10 3 -20 1
-24 -5 -3 -6 -12 -8 -19 -5 -9 3 -12 -3 -11 -18 2 -13 -3 -23 -10 -23 -7 0
-10 5 -7 10 4 6 1 7 -6 3 -7 -5 -10 -15 -6 -23 4 -13 3 -14 -9 -4 -12 10 -14
8 -10 -11 2 -13 1 -17 -2 -10 -4 9 -13 5 -30 -13 -13 -15 -21 -31 -18 -37 4
-6 3 -8 -3 -5 -6 4 -19 -1 -29 -9 -10 -9 -12 -12 -4 -8 12 6 13 5 2 -7 -11
-12 -14 -12 -23 1 -9 12 -10 11 -6 -5 3 -16 -2 -20 -26 -22 -17 -1 -34 -8 -39
-15 -4 -7 -8 -8 -8 -2 0 5 5 15 10 20 7 7 6 11 -5 11 -8 0 -13 -3 -10 -5 3 -3
0 -11 -6 -19 -9 -10 -15 -11 -26 -1 -12 10 -17 9 -27 -2 -6 -8 -19 -16 -29
-16 -15 -2 -16 1 -5 14 11 13 11 14 -2 7 -8 -6 -18 -10 -22 -10 -3 0 -10 -4
-15 -9 -5 -5 -3 -6 5 -2 6 4 12 2 12 -3 0 -14 -17 -14 -25 -1 -5 8 -11 8 -20
0 -8 -7 -15 -7 -19 -1 -3 5 -1 12 4 14 6 3 5 4 -2 2 -7 -1 -12 -8 -10 -15 2
-8 -4 -11 -18 -7 -11 3 -20 1 -20 -5 0 -5 -5 -6 -10 -3 -6 4 -7 11 -4 17 5 7
2 8 -5 4 -7 -5 -10 -14 -7 -22 6 -16 -13 -14 -32 4 -20 18 -36 15 -18 -4 20
-20 21 -30 1 -14 -10 9 -15 9 -15 1 0 -6 -5 -11 -11 -11 -5 0 -7 5 -4 10 9 15
-8 12 -32 -5 -20 -14 -23 -14 -31 1 -8 15 -10 15 -15 0 -5 -11 -3 -15 5 -10 6
4 8 3 4 -4 -4 -6 -17 -8 -34 -3 -35 10 -60 6 -82 -14 -19 -17 -37 -5 -24 17 4
7 3 8 -4 4 -7 -4 -12 -13 -12 -20 0 -9 -9 -12 -26 -8 -16 3 -25 1 -21 -5 3 -5
0 -10 -8 -10 -8 0 -11 5 -8 10 3 5 0 7 -8 5 -8 -3 -13 -10 -12 -15 1 -6 -8
-10 -20 -9 -13 1 -21 7 -19 16 2 10 0 11 -11 2 -8 -7 -18 -8 -22 -4 -5 4 -5 1
-1 -6 4 -7 13 -9 19 -6 7 4 8 3 4 -1 -10 -11 -37 -16 -37 -6 0 4 -9 7 -20 7
-20 0 -20 -1 2 -18 l23 -19 -28 13 c-23 10 -30 9 -38 -3 -7 -12 -9 -12 -10 1
-1 8 0 20 1 25 1 6 -2 6 -7 2 -4 -5 -8 -14 -8 -20 0 -5 -6 -12 -14 -15 -8 -3
-11 0 -8 5 3 5 0 10 -8 10 -8 0 -12 -4 -9 -9 8 -12 -40 -10 -53 3 -8 8 -11 6
-10 -6 1 -10 -6 -19 -16 -20 -10 -2 -14 1 -11 7 4 6 1 8 -7 6 -8 -3 -13 -10
-12 -15 1 -5 -22 -9 -52 -8 -29 0 -52 -2 -50 -5 1 -3 -4 -12 -13 -20 -14 -13
-15 -12 -9 3 3 9 2 19 -2 22 -5 2 -11 -5 -14 -16 -5 -20 -7 -20 -22 -5 -18 18
-30 21 -20 6 3 -5 1 -10 -5 -10 -6 0 -8 -4 -5 -10 3 -6 -1 -7 -9 -4 -9 3 -13
11 -10 18 3 6 -1 2 -10 -8 -14 -17 -16 -17 -22 -3 -5 15 -9 14 -26 -6 -17 -19
-19 -19 -14 -3 5 14 3 16 -6 9 -7 -6 -21 -9 -30 -8 -11 2 -15 -2 -11 -12 5
-13 2 -13 -15 -4 -15 8 -23 8 -28 -1 -5 -7 -3 -8 6 -3 9 5 11 4 6 -4 -6 -9
-11 -9 -24 1 -12 10 -14 10 -8 1 7 -12 -5 -18 -28 -14 -5 1 -13 -4 -17 -11 -7
-10 -9 -10 -9 0 0 10 -5 10 -20 2 -10 -6 -23 -9 -27 -8 -17 4 -53 -14 -47 -24
4 -6 -1 -8 -16 -3 -13 4 -20 3 -17 -2 3 -5 -7 -8 -24 -7 -16 1 -26 -2 -23 -7
3 -5 11 -6 17 -3 7 4 8 3 4 -2 -12 -12 -30 -12 -39 1 -5 6 -8 3 -8 -6 0 -20
-37 -32 -45 -15 -3 6 -3 1 -1 -12 4 -18 2 -21 -9 -12 -9 8 -15 8 -20 0 -3 -6
-11 -7 -17 -4 -7 5 -8 2 -4 -5 6 -8 2 -11 -10 -9 -12 2 -18 -2 -16 -11 2 -8
-3 -11 -11 -8 -7 3 -14 -1 -14 -9 0 -7 5 -10 10 -7 6 3 7 1 3 -5 -4 -7 -14
-12 -22 -12 -8 0 -14 -5 -14 -11 0 -5 5 -7 11 -4 6 4 5 -2 -2 -14 -8 -11 -20
-22 -29 -25 -12 -3 -11 -4 3 -5 19 -1 23 -16 7 -26 -6 -4 -8 -10 -5 -15 3 -5
0 -12 -6 -16 -8 -4 -9 -3 -5 4 4 7 2 12 -3 12 -16 0 -13 -16 6 -36 16 -16 16
-16 -4 -10 -12 4 -24 2 -28 -4 -4 -6 -1 -9 6 -8 9 2 13 -8 14 -29 0 -24 -3
-29 -13 -21 -9 8 -11 7 -6 -7 6 -14 4 -16 -7 -10 -12 8 -12 6 0 -8 7 -9 10
-17 5 -17 -5 0 -2 -5 6 -11 12 -9 12 -10 -4 -5 -14 5 -17 2 -12 -10 6 -15 4
-15 -11 -3 -14 11 -15 12 -9 0 5 -8 3 -17 -5 -23 -11 -8 -10 -9 4 -4 9 3 17 1
17 -4 0 -6 -6 -10 -14 -10 -8 0 -18 -5 -22 -12 -4 -6 -3 -9 2 -6 5 4 10 -5 10
-18 2 -22 1 -23 -10 -8 -12 15 -13 15 -13 -2 0 -11 5 -25 11 -33 8 -11 8 -13
-1 -8 -6 4 -13 4 -16 0 -2 -5 -2 -3 -1 4 2 7 -2 15 -9 19 -7 4 -9 4 -5 0 4 -5
3 -18 -2 -31 -5 -14 -5 -26 3 -34 8 -8 8 -11 -2 -11 -11 0 -11 -3 0 -17 12
-14 12 -16 0 -8 -11 6 -13 4 -8 -9 4 -10 3 -15 -4 -11 -6 4 -7 -3 -3 -19 5
-21 2 -26 -12 -27 -18 0 -17 -1 1 -9 18 -8 18 -9 2 -9 -17 -1 -17 -2 -3 -17
20 -19 21 -31 2 -15 -11 9 -14 9 -13 -1 0 -7 -1 -30 -1 -52 -2 -32 -5 -37 -19
-32 -11 4 -8 -2 7 -14 14 -11 21 -20 15 -19 -31 4 -38 -1 -24 -18 9 -11 10
-14 2 -9 -7 4 -21 2 -30 -4 -16 -11 -16 -11 -1 -6 10 3 20 1 23 -5 4 -5 1 -8
-7 -7 -7 2 -12 -3 -10 -11 3 -12 0 -12 -11 -2 -12 9 -15 8 -13 -6 0 -10 -5
-17 -11 -16 -7 2 -13 -2 -13 -8 0 -5 -5 -7 -12 -3 -7 4 -8 3 -4 -5 4 -6 12 -8
18 -5 7 4 8 2 4 -4 -4 -7 -15 -12 -24 -12 -15 0 -15 -2 -2 -10 13 -8 13 -10
-2 -10 -9 0 -20 -5 -24 -12 -5 -7 -3 -8 6 -3 8 5 11 3 8 -6 -3 -8 -10 -14 -16
-14 -7 0 -12 -4 -12 -10 0 -5 4 -10 9 -10 5 0 13 -4 18 -9 4 -5 3 -7 -2 -3
-18 9 -36 -8 -39 -37 -3 -23 -1 -25 13 -14 14 11 14 11 4 -3 -7 -9 -10 -19 -6
-23 4 -4 0 -4 -9 -1 -9 4 -19 1 -24 -6 -4 -7 -3 -10 3 -6 6 4 16 0 22 -7 10
-11 8 -17 -6 -25 -14 -8 -15 -11 -3 -11 12 0 11 -3 -2 -11 -17 -9 -17 -11 -1
-37 l17 -27 -21 18 c-20 18 -21 18 -19 0 0 -10 6 -22 11 -26 6 -5 1 -7 -11 -4
-20 4 -21 2 -14 -23 7 -25 6 -27 -14 -23 -12 3 -17 1 -11 -4 6 -4 11 -14 13
-22 3 -12 1 -12 -14 0 -12 9 -15 9 -10 2 4 -8 2 -13 -6 -13 -9 0 -9 -3 2 -10
11 -7 11 -10 2 -10 -7 0 -12 -8 -10 -17 2 -10 -3 -17 -10 -16 -15 4 -16 -19 0
-35 7 -7 9 -12 6 -12 -4 0 -14 7 -22 16 -9 8 -16 11 -16 5 0 -5 5 -13 11 -17
8 -4 3 -12 -12 -21 l-24 -14 25 5 c24 5 24 4 6 -9 -25 -19 -30 -45 -8 -39 11
4 10 1 -3 -7 -11 -6 -22 -13 -24 -15 -2 -2 2 -11 10 -21 12 -15 12 -16 -4 -10
-13 5 -16 3 -10 -5 10 -17 11 -48 1 -42 -4 3 -8 0 -8 -5 0 -6 5 -11 12 -11 6
0 3 -7 -8 -16 -10 -8 -14 -13 -8 -10 7 3 15 -1 18 -9 3 -9 -1 -18 -9 -22 -13
-4 -13 -8 -3 -21 7 -9 9 -13 3 -11 -5 3 -18 -2 -27 -13 -20 -20 -10 -25 11 -5
11 10 13 9 7 -6 -3 -10 -6 -21 -6 -23 0 -2 -8 -4 -17 -5 -11 0 -13 -3 -5 -6 6
-2 12 -9 12 -14 0 -6 -4 -7 -10 -4 -5 3 -10 1 -10 -4 0 -6 6 -11 13 -12 6 -1
1 -5 -13 -9 -17 -5 -19 -8 -7 -9 9 -1 17 -6 17 -12 0 -5 -5 -7 -12 -3 -8 5 -9
2 -5 -9 4 -11 1 -17 -8 -17 -7 0 -17 -5 -21 -12 -5 -8 -2 -9 9 -5 10 3 17 2
17 -3 0 -6 -5 -10 -11 -10 -6 0 -9 -9 -6 -19 3 -13 0 -18 -8 -15 -7 3 -16 0
-21 -7 -4 -8 -3 -10 4 -5 7 4 12 3 12 -3 0 -5 -6 -12 -12 -14 -10 -4 -10 -6 0
-6 6 -1 12 -6 12 -12 0 -6 -7 -9 -15 -6 -11 5 -12 1 -5 -19 6 -14 6 -23 1 -20
-5 3 -14 -1 -21 -9 -11 -13 -10 -14 5 -9 15 6 15 4 4 -14 -7 -11 -18 -18 -24
-14 -5 3 -4 -2 4 -12 11 -13 11 -20 3 -28 -15 -15 -15 -31 0 -22 7 4 8 3 4 -4
-4 -7 -15 -12 -24 -12 -13 0 -13 -2 4 -16 10 -8 13 -12 5 -8 -10 5 -11 1 -6
-17 7 -23 7 -23 -8 -4 -14 19 -15 18 -10 -8 3 -15 0 -34 -8 -44 -10 -12 -10
-14 -1 -9 6 4 12 2 12 -3 0 -6 -5 -11 -11 -11 -8 0 -7 -5 1 -15 11 -13 10 -14
-4 -9 -14 5 -15 3 -6 -21 9 -23 8 -26 -3 -17 -11 9 -13 7 -12 -11 2 -12 8 -21
14 -19 7 1 10 -2 6 -7 -3 -6 -13 -7 -23 -4 -15 6 -16 5 -2 -12 14 -17 13 -18
-4 -11 -19 7 -19 6 -1 -14 17 -19 12 -26 -18 -21 -5 1 -6 -3 -2 -9 3 -6 10 -8
15 -5 5 3 12 1 15 -5 4 -6 3 -10 -2 -9 -4 1 -15 1 -23 0 -13 -1 -13 -3 -1 -10
12 -8 12 -12 -2 -26 -19 -19 -21 -31 -7 -40 5 -3 10 -11 10 -16 0 -6 -4 -8 -8
-5 -5 3 -9 -1 -9 -9 0 -8 4 -12 8 -10 10 7 5 -22 -6 -32 -4 -5 -4 -1 0 7 8 13
6 13 -8 1 -16 -13 -14 -36 3 -26 5 3 12 0 16 -6 5 -8 3 -9 -6 -4 -10 6 -12 4
-7 -8 4 -12 2 -14 -11 -10 -15 6 -16 5 -2 -12 9 -11 10 -16 3 -11 -7 4 -13 2
-13 -3 0 -6 5 -11 11 -11 6 0 3 -7 -5 -16 -9 -8 -14 -19 -11 -24 3 -5 2 -10
-2 -13 -5 -2 -3 -2 4 -1 7 2 15 -2 19 -8 4 -6 3 -8 -3 -5 -6 4 -17 -1 -24 -10
-12 -15 -12 -16 5 -10 16 6 17 5 6 -8 -7 -8 -17 -12 -24 -9 -6 3 -2 -2 8 -10
18 -14 15 -21 -7 -17 -4 0 -6 -2 -6 -6 1 -5 0 -10 -1 -13 -7 -19 -7 -41 1 -46
6 -4 6 -11 -1 -19 -8 -10 -8 -15 1 -21 8 -5 9 -3 4 6 -5 9 -4 11 4 6 9 -6 9
-11 0 -22 -6 -8 -8 -14 -3 -14 5 0 -2 -10 -16 -21 -14 -11 -19 -18 -12 -14 6
3 12 1 12 -4 0 -6 -5 -11 -11 -11 -6 0 -3 -7 5 -16 21 -21 20 -30 -1 -13 -9 8
-14 9 -10 2 4 -6 9 -25 11 -42 3 -27 1 -30 -12 -19 -14 12 -14 10 -2 -12 15
-28 15 -30 2 -39 -5 -3 -12 -17 -16 -31 l-7 -25 15 25 c9 14 15 20 16 15 0 -6
-6 -19 -13 -30 -20 -29 -27 -64 -15 -72 7 -4 8 -1 3 7 -6 9 -4 11 4 6 9 -6 9
-12 -3 -25 -13 -14 -13 -20 -3 -31 9 -10 9 -11 0 -6 -17 9 -17 -6 -1 -23 11
-11 9 -11 -12 -1 -20 10 -23 10 -13 0 6 -7 9 -19 6 -28 -5 -11 -3 -13 7 -7 15
9 7 -8 -19 -39 -9 -11 -10 -16 -3 -12 6 4 12 3 12 -1 0 -5 -6 -15 -12 -22 -10
-11 -10 -13 0 -7 6 4 12 3 12 -3 0 -5 -6 -12 -12 -14 -10 -4 -10 -6 0 -6 6 -1
12 -6 12 -12 0 -5 -6 -7 -12 -3 -8 5 -7 0 2 -11 8 -10 10 -16 5 -13 -6 4 -15
-5 -22 -18 -6 -13 -7 -24 -2 -24 5 0 9 5 9 10 0 6 4 10 9 10 5 0 4 -11 -2 -24
-7 -13 -14 -23 -17 -21 -3 2 -7 -6 -7 -18 -2 -17 0 -19 7 -7 8 12 9 11 7 -5
-2 -11 -7 -28 -12 -37 -4 -10 -5 -25 -1 -33 3 -8 1 -15 -4 -15 -6 0 -10 5 -10
12 0 6 -3 8 -7 5 -3 -4 2 -16 12 -28 16 -17 17 -22 5 -29 -8 -5 -18 -6 -24 -3
-5 3 -6 1 -2 -6 4 -6 11 -9 15 -7 4 3 8 -2 8 -10 0 -8 -5 -13 -12 -10 -7 2
-10 -6 -7 -26 3 -21 1 -29 -7 -24 -7 5 -9 1 -5 -9 5 -13 9 -13 23 -3 9 7 5 -1
-9 -16 -18 -21 -20 -28 -8 -23 12 4 15 2 12 -8 -3 -8 -9 -13 -12 -12 -4 1 -7
-2 -7 -8 0 -5 3 -9 8 -7 12 4 8 -16 -5 -21 -10 -4 -10 -6 0 -6 6 -1 12 -5 12
-11 0 -5 -8 -7 -17 -4 -16 5 -17 5 -1 -5 9 -6 15 -19 13 -29 -2 -9 -4 -21 -4
-25 -1 -5 -5 -5 -11 -2 -6 3 -7 -1 -4 -9 3 -9 11 -13 16 -10 6 4 5 -3 -1 -15
-7 -11 -16 -21 -22 -21 -6 0 -3 -7 5 -16 14 -14 14 -34 0 -34 -3 0 -2 4 1 10
3 5 1 10 -4 10 -17 0 -13 -18 6 -29 11 -6 13 -11 5 -11 -7 0 -10 -4 -7 -10 3
-5 1 -10 -5 -10 -7 0 -5 -7 4 -16 22 -21 20 -27 -4 -14 -24 13 -26 7 -4 -14 9
-9 11 -16 4 -16 -6 0 -8 -4 -5 -10 3 -5 1 -10 -4 -10 -6 0 -11 -5 -11 -11 0
-5 4 -8 9 -4 5 3 12 1 15 -4 3 -5 -1 -12 -10 -15 -13 -5 -14 -9 -5 -20 9 -11
9 -15 -1 -19 -8 -3 -5 -6 7 -7 19 -1 19 -2 1 -9 -17 -7 -17 -8 -2 -24 16 -16
16 -17 0 -17 -16 0 -16 -1 0 -19 17 -18 17 -20 -1 -29 -17 -10 -17 -11 0 -30
15 -16 16 -22 5 -29 -10 -6 -13 -44 -13 -155 -1 -84 3 -144 8 -141 5 3 4 -4
-2 -15 -13 -24 -4 -55 13 -45 6 4 5 -1 -3 -11 -14 -17 -22 -78 -9 -70 4 2 9 0
13 -6 3 -5 1 -10 -4 -10 -6 0 -11 -5 -11 -11 0 -5 4 -8 9 -5 15 9 7 -49 -9
-62 -13 -10 -13 -11 2 -6 10 3 18 1 18 -5 0 -6 -5 -11 -11 -11 -5 0 -7 -5 -4
-10 4 -6 10 -8 15 -5 13 8 3 -34 -12 -53 -8 -9 -8 -13 -2 -9 7 4 15 0 18 -9 3
-8 2 -12 -3 -9 -5 3 -13 0 -17 -6 -4 -8 -3 -9 4 -5 7 4 12 2 12 -4 0 -6 4 -9
8 -6 5 3 9 -1 9 -8 0 -8 -7 -12 -16 -9 -14 4 -14 3 1 -9 15 -13 15 -15 0 -26
-15 -10 -15 -11 2 -5 13 4 17 3 13 -4 -4 -6 -2 -13 5 -15 7 -3 5 -7 -6 -11
-11 -5 -15 -3 -10 5 4 7 3 8 -5 4 -6 -4 -9 -12 -5 -17 3 -5 11 -6 17 -2 7 4 5
-2 -3 -12 -14 -17 -13 -18 2 -12 12 4 15 2 11 -8 -3 -8 -9 -12 -14 -9 -5 3 -9
0 -9 -5 0 -6 8 -11 18 -11 15 -1 15 -2 -2 -15 -19 -14 -11 -21 17 -16 5 1 6
-3 2 -9 -3 -6 -11 -8 -16 -5 -5 4 -9 1 -9 -4 0 -6 4 -11 9 -11 5 0 7 -10 3
-22 -3 -12 -1 -19 5 -15 5 3 10 0 10 -8 0 -8 -4 -12 -9 -9 -4 3 -8 1 -8 -5 0
-5 8 -12 17 -14 17 -4 17 -5 1 -6 -10 0 -18 -6 -18 -12 0 -6 6 -9 13 -6 8 3
12 -9 11 -42 0 -25 5 -53 10 -61 9 -13 9 -13 -6 -2 -9 8 -14 20 -11 28 3 8 1
14 -5 14 -11 0 -11 -18 1 -37 5 -7 5 -17 2 -23 -3 -5 0 -7 8 -4 10 3 13 -4 12
-28 -1 -18 2 -38 7 -45 6 -7 4 -14 -3 -19 -8 -4 -9 -3 -5 4 5 8 1 10 -10 5
-11 -4 -13 -8 -6 -11 7 -2 17 -13 24 -25 11 -21 10 -21 -8 -7 -18 14 -18 14
-5 -2 7 -10 10 -18 7 -18 -4 0 -2 -9 3 -19 8 -15 7 -20 -5 -25 -13 -5 -14 -9
-4 -21 10 -12 10 -18 -1 -32 -8 -9 -9 -14 -4 -11 6 3 16 0 23 -8 11 -12 10
-14 -3 -14 -8 0 -15 -4 -15 -10 0 -5 8 -7 18 -4 14 5 14 3 -2 -10 -19 -16 -19
-16 5 -17 22 0 23 -1 4 -9 -11 -5 -14 -9 -7 -9 6 -1 12 -6 12 -12 0 -5 -4 -8
-8 -5 -5 3 -9 -2 -9 -10 0 -8 5 -13 12 -11 6 3 11 -3 11 -13 0 -10 -4 -17 -7
-14 -4 2 -10 0 -14 -6 -3 -5 -1 -10 4 -10 6 0 11 -5 11 -11 0 -5 -5 -7 -10 -4
-16 10 -11 -1 7 -16 14 -12 16 -12 8 0 -5 9 -4 12 2 8 11 -7 11 -36 -1 -55 -4
-7 -2 -12 5 -12 7 0 9 -3 6 -7 -4 -3 -1 -13 6 -21 9 -13 9 -14 0 -8 -7 4 -13
3 -13 -3 0 -5 5 -13 10 -16 8 -5 8 -11 0 -20 -8 -10 -7 -16 7 -25 15 -9 14
-10 -7 -4 -24 6 -24 6 -5 -10 l20 -15 -20 -1 c-16 0 -17 -2 -5 -9 8 -6 17 -8
20 -6 4 2 7 -2 7 -10 0 -8 -4 -12 -9 -9 -4 3 -8 0 -8 -5 0 -6 6 -11 13 -11 9
0 9 -2 -1 -9 -11 -7 -11 -9 2 -14 10 -4 13 -13 9 -23 -5 -13 -3 -15 7 -9 9 5
11 4 6 -4 -4 -6 -12 -9 -17 -6 -5 3 -6 -2 -2 -11 5 -13 3 -15 -7 -9 -8 5 -11
4 -6 -3 4 -6 14 -8 24 -5 15 6 15 5 3 -10 -9 -11 -10 -17 -2 -17 6 0 11 -8 11
-17 0 -15 -2 -16 -10 -3 -5 8 -12 12 -15 8 -4 -3 0 -12 8 -19 13 -12 13 -16
-1 -34 -16 -19 -16 -19 2 -5 18 14 18 13 11 -9 -5 -15 -4 -21 3 -17 7 4 8 -3
2 -24 -6 -19 -5 -32 2 -36 7 -5 8 -2 3 7 -5 8 -4 10 0 6 14 -12 15 -38 2 -30
-7 4 -5 -2 3 -12 8 -10 10 -16 3 -12 -6 4 -15 2 -19 -4 -4 -7 -3 -9 3 -6 6 4
19 -5 28 -20 15 -22 15 -25 2 -20 -11 4 -14 2 -10 -9 3 -8 12 -13 20 -10 8 3
11 1 8 -4 -10 -17 12 -45 37 -45 16 0 22 -6 20 -18 -2 -9 3 -17 10 -17 9 0 9
-3 -2 -10 -9 -6 -10 -10 -3 -10 7 0 10 -12 8 -30 -2 -17 0 -30 6 -30 5 0 2
-11 -6 -24 -12 -18 -13 -26 -4 -32 8 -4 9 -3 5 4 -4 7 -1 12 9 12 13 0 14 -4
4 -21 -6 -12 -9 -32 -7 -44 3 -15 1 -22 -7 -19 -9 4 -12 -7 -11 -35 1 -25 -3
-42 -11 -45 -7 -3 -10 -12 -6 -22 5 -13 3 -15 -8 -10 -8 4 -5 0 5 -8 18 -15
297 -16 2962 -16 l2941 0 -2 23 c-4 37 -5 38 -16 31 -6 -3 -3 6 7 22 14 21 14
26 3 17 -12 -10 -15 -8 -15 7 0 10 3 17 7 14 15 -9 15 32 0 50 -9 11 -10 16
-3 12 11 -7 17 12 13 38 -1 4 4 15 11 24 11 13 10 15 -5 9 -10 -4 -16 -3 -15
1 2 4 10 20 18 35 11 23 12 32 1 49 -7 11 -10 23 -7 26 3 3 6 0 6 -7 0 -7 5
-9 12 -5 7 5 8 2 3 -7 -6 -11 -5 -11 5 -2 10 9 10 15 -4 28 -14 15 -14 35 0
35 3 0 3 -4 0 -9 -3 -5 1 -11 9 -14 10 -4 12 -1 8 10 -5 12 -1 14 18 9 13 -3
18 -3 12 0 -22 10 -14 26 10 19 17 -5 19 -4 7 4 -14 10 -8 15 15 12 6 -1 1 6
-9 14 -17 13 -17 15 -4 15 9 0 20 5 24 12 4 6 3 8 -3 5 -6 -4 -11 4 -10 18 0
14 3 25 8 25 5 0 9 -5 9 -12 0 -6 3 -8 7 -4 5 4 0 13 -9 20 -11 8 -15 20 -11
35 4 15 8 19 13 11 5 -7 7 1 7 18 -1 17 -5 28 -9 26 -3 -2 -9 0 -13 6 -3 5 0
10 8 10 8 0 13 9 12 22 -1 13 2 31 7 42 7 12 7 16 0 12 -5 -3 -9 5 -9 19 0 14
3 23 7 20 3 -2 7 2 7 10 0 8 -4 12 -9 9 -10 -6 -11 10 -1 20 10 10 11 46 1 46
-11 0 -6 23 7 33 6 4 6 10 -2 15 -13 8 -12 30 3 66 5 14 4 17 -4 12 -7 -4 -12
-5 -12 -1 0 3 10 10 23 15 17 7 18 9 5 9 -23 1 -24 21 -1 21 15 0 14 2 -3 15
-18 13 -18 14 -1 15 17 0 17 1 3 16 -18 17 -21 28 -6 19 6 -3 10 -3 11 2 0 4
2 16 4 25 2 10 -1 20 -6 24 -5 3 -9 10 -9 16 0 6 7 5 18 -3 15 -13 16 -12 4 3
-8 9 -10 23 -6 29 4 7 3 9 -4 5 -6 -3 -14 -1 -18 5 -4 7 -3 9 2 6 6 -3 16 -2
24 4 11 6 12 9 2 9 -7 0 -10 5 -7 10 3 6 1 10 -5 10 -6 0 -8 5 -5 10 4 6 12 8
18 4 7 -3 5 0 -3 8 -8 7 -16 22 -18 33 -3 19 -3 19 10 2 13 -17 14 -17 13 7
-1 14 -5 29 -10 33 -4 5 -5 2 0 -6 5 -9 4 -12 -3 -7 -17 10 -15 26 3 26 8 0
15 5 15 11 0 5 -4 8 -9 5 -5 -3 -11 3 -14 15 -4 16 -3 18 8 9 11 -9 12 -7 8 9
-3 12 -10 18 -17 14 -6 -3 -6 0 2 8 16 17 16 32 0 23 -7 -4 -4 3 6 15 14 15
15 20 5 16 -10 -4 -15 2 -16 17 0 13 1 17 4 11 9 -23 20 -14 17 13 -1 15 -9
31 -16 35 -7 5 -8 9 -3 9 6 0 16 10 24 23 l14 22 -24 -20 -23 -20 18 29 c10
16 13 26 8 22 -6 -3 -13 -2 -17 4 -3 5 -1 10 5 10 7 0 10 6 7 14 -3 7 0 19 6
25 9 9 8 11 -4 6 -10 -4 -20 -1 -24 5 -3 6 -3 10 2 9 22 -4 32 3 30 20 -1 16
-4 18 -22 9 -20 -11 -20 -11 -1 10 10 12 16 27 13 35 -3 8 -1 20 3 27 11 18
-7 53 -23 43 -7 -4 -5 2 3 13 22 29 24 30 18 13 -4 -9 -1 -16 7 -16 10 0 11 5
4 19 -5 10 -9 26 -7 36 2 11 -3 16 -12 14 -8 -1 -4 7 10 18 14 11 22 20 18 21
-5 1 -12 2 -17 3 -18 2 -24 16 -8 16 10 0 17 1 17 3 0 1 -4 17 -10 35 -7 27
-6 31 3 23 9 -7 13 -5 13 9 0 10 -3 17 -7 14 -4 -2 -7 8 -6 21 0 22 2 24 16
13 10 -8 8 -3 -4 11 -11 14 -14 21 -7 17 6 -4 12 -2 12 3 0 6 -4 11 -8 11 -5
0 -8 16 -7 37 0 26 6 38 20 44 18 7 17 8 -5 9 -18 2 -20 4 -7 7 9 2 15 9 12
14 -4 5 -8 18 -10 30 -3 14 0 19 9 16 15 -6 16 9 3 30 -4 6 -2 15 4 19 8 5 9
3 4 -6 -5 -9 -4 -11 4 -6 8 6 9 12 2 20 -6 7 -8 16 -4 19 3 4 0 7 -7 7 -9 0
-7 5 6 15 13 10 14 13 3 10 -9 -4 -16 0 -16 9 0 9 6 12 16 8 14 -5 14 -3 -1
14 -14 16 -14 22 -4 36 7 10 17 14 22 10 4 -4 3 0 -2 8 -6 8 -11 27 -10 42 1
14 -1 25 -5 22 -4 -2 -9 3 -12 11 -4 9 -1 12 9 8 18 -7 18 2 -2 21 -8 9 -11
16 -5 16 6 0 11 9 11 21 0 11 -5 17 -10 14 -5 -3 -10 -1 -10 4 0 6 5 11 11 11
8 0 8 5 -1 15 -7 8 -9 15 -5 15 4 0 2 7 -5 15 -10 12 -9 16 3 21 18 6 17 25
-2 48 -8 9 -11 19 -7 23 3 3 6 0 6 -7 0 -7 3 -10 7 -7 3 4 -2 16 -13 28 -18
20 -18 21 1 35 16 12 16 14 3 14 -9 0 -20 5 -24 12 -5 7 -3 8 6 3 10 -6 12 -3
7 14 -5 19 -3 20 10 9 14 -11 15 -11 5 8 -6 12 -8 25 -4 30 4 5 0 3 -8 -3 -13
-10 -15 -5 -15 32 0 36 2 41 14 32 12 -10 12 -9 2 11 -7 13 -10 31 -7 39 5 12
3 13 -6 5 -10 -8 -13 -3 -13 23 0 32 1 33 19 17 18 -16 18 -16 5 6 -8 12 -16
22 -19 22 -3 0 -6 10 -7 21 -2 21 -1 21 12 3 13 -18 14 -18 8 4 -3 12 -13 22
-22 23 -13 0 -12 2 3 8 18 7 18 8 2 14 -15 6 -16 10 -6 21 9 11 9 20 0 36 -9
17 -9 25 0 34 8 8 9 6 4 -9 -4 -11 -4 -17 0 -14 10 9 16 50 7 44 -5 -3 -11 2
-14 9 -4 9 1 17 11 19 11 3 8 5 -8 6 -15 1 -20 4 -13 9 13 8 20 72 10 89 -4 7
0 13 10 16 15 4 15 5 2 6 -19 1 -32 38 -18 47 6 3 5 11 -2 20 -10 12 -9 13 6
8 15 -6 16 -4 6 14 -16 29 -14 37 6 21 15 -12 16 -12 8 1 -5 8 -10 20 -11 25
-1 6 -6 19 -10 29 -5 14 -4 17 4 12 8 -5 10 -2 6 8 -3 9 -11 13 -18 9 -6 -3 0
7 14 23 14 16 18 23 10 17 -8 -7 -17 -13 -21 -13 -9 0 -5 27 6 37 4 5 5 1 0
-7 -5 -8 -4 -12 0 -7 15 13 14 36 0 31 -17 -7 -14 18 4 40 12 14 11 16 -4 10
-13 -5 -16 -3 -13 7 3 8 12 13 19 11 9 -1 7 3 -4 12 -12 9 -14 16 -8 21 6 3
11 11 11 16 0 6 -4 8 -9 5 -5 -4 -8 1 -7 10 1 8 9 20 17 25 11 7 10 9 -6 9
-17 0 -17 2 -5 10 10 6 11 10 3 10 -7 0 -13 5 -13 11 0 5 4 8 8 5 5 -3 8 5 7
17 -2 12 -8 21 -14 19 -7 -1 -10 2 -6 8 3 6 11 8 16 5 5 -4 9 -1 9 4 0 6 -5
11 -12 11 -9 0 -9 3 0 12 15 15 15 28 1 28 -5 0 -7 -5 -3 -12 5 -7 3 -8 -6 -3
-10 6 -9 11 5 22 17 12 17 13 2 13 -14 0 -16 4 -8 19 6 10 12 33 15 52 3 19 3
28 0 22 -12 -27 -19 -11 -15 33 2 31 -1 50 -10 56 -11 8 -10 9 2 5 14 -5 16 2
14 38 -2 24 -7 50 -11 57 -13 20 -13 38 -2 38 6 0 7 -8 3 -17 -4 -13 -3 -15 5
-7 14 14 2 46 -14 37 -6 -4 -6 0 2 9 9 11 10 18 2 23 -13 8 -13 25 1 25 5 0 7
-5 3 -12 -5 -7 -3 -8 6 -3 11 7 10 10 -1 19 -16 12 -24 60 -8 51 5 -4 9 -1 9
4 0 6 -6 11 -12 11 -9 0 -8 4 2 10 13 8 12 10 -4 10 -20 0 -20 0 0 16 10 8 14
13 7 10 -6 -4 -14 -2 -18 4 -3 5 2 10 12 10 17 1 17 1 0 11 -13 8 -15 14 -7
30 10 18 6 24 -14 20 -5 -1 -4 5 3 13 7 9 11 22 8 30 -3 8 1 17 9 20 12 4 11
11 -6 40 -13 25 -16 37 -8 42 7 4 8 3 4 -4 -10 -17 -1 -15 14 4 8 8 9 14 4 13
-21 -4 -35 2 -29 11 4 6 11 8 16 5 5 -3 6 1 3 9 -3 9 -9 14 -13 11 -10 -6 -7
33 4 42 4 5 5 3 1 -4 -3 -6 -2 -14 3 -17 5 -4 8 2 6 11 -2 10 -4 18 -5 18 -1
0 -3 11 -6 24 -2 14 -9 30 -15 38 -16 18 -4 16 15 -3 9 -8 16 -11 16 -5 0 5
-5 13 -10 16 -6 4 -7 11 -4 17 4 7 2 8 -4 4 -15 -9 -16 6 -1 21 7 7 8 17 1 28
-6 12 -11 14 -16 6 -4 -6 -2 -11 3 -11 6 0 11 -5 11 -12 0 -8 -7 -6 -17 5 -12
12 -14 20 -7 25 6 4 11 27 13 52 1 24 7 47 13 51 7 4 7 9 -1 13 -6 4 -9 12 -6
17 4 5 -2 6 -12 2 -16 -6 -16 -5 -4 10 9 11 10 17 2 17 -6 0 -11 5 -11 11 0 5
5 7 10 4 14 -9 12 8 -2 24 -9 10 -9 12 -1 7 6 -3 15 -2 18 4 4 6 3 10 -2 9 -4
-1 -15 -1 -23 0 -13 1 -13 3 0 10 8 6 18 7 24 4 5 -3 6 -1 2 6 -4 6 -11 9 -16
6 -4 -3 -10 2 -13 10 -4 10 -1 12 11 8 14 -5 14 -3 -3 17 -16 19 -17 22 -3 17
17 -6 20 15 3 30 -4 5 -5 1 0 -7 5 -8 5 -12 0 -8 -4 4 -8 25 -9 47 -2 35 0 39
13 28 14 -10 14 -10 4 4 -7 9 -10 19 -6 23 4 4 1 4 -8 1 -10 -4 -15 1 -15 14
0 11 4 17 8 15 4 -3 8 0 8 5 0 6 -5 11 -11 11 -5 0 -7 5 -3 12 4 7 8 22 9 35
0 18 -4 22 -20 18 -11 -3 -14 -2 -7 1 6 3 10 10 7 14 -3 5 0 12 6 16 8 5 9 3
4 -6 -5 -8 -4 -11 3 -7 14 9 -8 68 -22 60 -6 -3 -5 0 2 8 6 7 12 17 12 22 0 4
-6 5 -12 1 -8 -5 -7 0 2 11 9 11 10 16 3 11 -7 -4 -13 -3 -13 3 0 5 8 12 18
14 15 4 15 5 1 6 -9 0 -20 8 -23 17 -3 8 -2 13 3 10 5 -3 11 1 15 9 3 8 0 17
-6 21 -7 5 -8 2 -3 -6 5 -9 4 -11 -3 -6 -17 10 -15 24 6 29 12 3 11 5 -6 6
-22 1 -22 2 -7 17 11 11 13 20 6 27 -5 5 -7 16 -4 23 3 9 -2 14 -13 14 -17 0
-16 1 2 16 10 8 14 13 9 10 -16 -7 -38 31 -23 40 6 4 8 3 4 -4 -3 -6 -2 -13 3
-16 21 -13 20 14 -1 28 -21 15 -37 53 -17 40 5 -3 7 -10 4 -15 -4 -5 -2 -9 3
-9 5 0 9 18 8 39 0 22 -4 37 -8 34 -5 -2 -8 1 -8 7 0 6 -4 8 -10 5 -6 -3 -7 1
-3 10 5 14 8 14 15 3 7 -9 8 -8 4 5 -3 10 -6 21 -6 23 0 3 -4 3 -8 0 -5 -3 -9
1 -9 9 0 8 4 12 9 9 4 -3 8 2 8 11 0 9 -4 13 -10 10 -14 -9 -12 8 3 24 6 8 8
11 2 9 -5 -3 -17 1 -25 10 -13 14 -12 15 5 8 11 -4 16 -4 12 0 -4 4 -1 14 6
22 9 13 9 14 0 8 -8 -4 -13 -2 -13 4 0 6 -4 8 -10 5 -5 -3 -10 -2 -10 4 0 5 6
12 13 14 9 4 9 8 -2 15 -11 8 -10 11 5 15 16 4 17 5 2 6 -10 0 -18 8 -18 17 0
9 5 12 13 8 10 -6 10 -4 0 7 -15 16 -17 33 -3 24 16 -10 11 1 -7 16 -14 12
-16 12 -8 0 5 -9 4 -12 -2 -8 -10 6 -11 36 -1 52 10 17 -10 57 -24 49 -10 -6
-11 -4 0 7 15 16 16 33 0 23 -7 -5 -8 -3 -2 7 14 22 13 37 -2 43 -16 6 -19 26
-3 26 5 0 7 -5 3 -12 -5 -7 -3 -8 6 -3 10 6 9 11 -5 21 -10 7 -21 11 -26 9 -4
-3 -11 0 -15 6 -4 8 -3 9 4 5 8 -5 11 1 10 18 -1 15 -8 26 -16 26 -7 0 -10 5
-7 10 3 6 1 10 -5 10 -6 0 -8 5 -4 12 5 7 3 8 -7 2 -20 -12 -40 -14 -33 -3 3
5 11 6 17 2 7 -4 6 0 -2 10 -15 18 -26 23 -16 7 3 -5 2 -10 -3 -10 -6 0 -12 7
-15 15 -3 8 -14 13 -24 11 -10 -2 -24 2 -31 10 -10 10 -10 14 -1 14 7 0 9 3 6
6 -4 4 -13 1 -22 -6 -11 -9 -15 -9 -15 -1 0 7 -5 9 -12 5 -9 -5 -9 -2 1 9 16
20 2 23 -18 5 -11 -11 -13 -10 -8 4 3 10 1 20 -5 24 -7 4 -8 3 -4 -4 12 -20
-13 -13 -34 8 -22 22 -35 27 -24 8 4 -7 3 -8 -4 -4 -7 4 -12 14 -12 23 0 9 -3
13 -6 10 -4 -3 -16 -1 -28 5 -20 11 -41 17 -78 20 -13 2 -16 8 -12 23 5 16 4
18 -7 8 -19 -18 -26 -16 -33 9 -4 18 -8 20 -18 10 -17 -17 -29 -15 -22 3 5 11
2 13 -12 8 -13 -5 -15 -3 -9 8 7 11 5 11 -10 -1 -17 -14 -18 -13 -11 5 4 11 4
16 0 13 -3 -4 -19 -1 -34 7 -22 11 -30 12 -33 2 -3 -6 -6 -1 -7 13 -1 23 -2
23 -10 5 -7 -16 -9 -17 -9 -3 -1 19 -35 33 -53 22 -8 -5 -7 0 2 11 14 17 14
18 -7 6 -13 -6 -23 -7 -23 -2 0 5 5 11 12 13 7 3 5 7 -6 11 -10 4 -15 3 -11
-3 3 -6 -5 -9 -19 -8 -19 2 -23 6 -16 18 6 12 5 17 -5 17 -8 0 -12 -4 -9 -9 3
-4 0 -8 -5 -8 -6 0 -11 5 -11 10 0 14 -27 12 -34 -2 -3 -7 -3 -1 -1 13 2 21
-1 26 -13 24 -10 -1 -21 3 -25 9 -5 6 -6 0 -3 -14 l6 -25 -12 23 c-8 15 -18
22 -30 19 -11 -3 -16 -1 -11 6 4 6 0 8 -10 4 -20 -7 -23 8 -4 17 6 3 1 3 -12
0 -18 -5 -22 -3 -16 7 6 11 5 12 -6 1 -11 -10 -16 -8 -27 10 -11 19 -12 20 -8
3 6 -20 6 -20 -9 -1 -9 12 -15 15 -15 7 0 -7 -9 -3 -20 10 -10 13 -19 19 -20
13 0 -5 6 -16 13 -23 6 -8 0 -6 -14 3 -14 9 -28 13 -32 10 -3 -4 -5 2 -2 14 3
20 -9 24 -32 9 -8 -5 -13 -3 -13 3 0 6 -5 8 -12 4 -10 -6 -9 -3 0 9 12 14 11
16 -7 14 -14 -1 -20 -6 -16 -16 4 -11 3 -11 -9 -2 -8 7 -12 20 -9 29 4 13 3
14 -5 3 -7 -9 -12 -10 -16 -2 -4 6 -21 11 -37 11 -18 0 -28 4 -24 10 3 6 1 10
-5 10 -6 0 -8 5 -4 12 4 7 3 8 -5 4 -6 -4 -9 -11 -6 -16 3 -5 0 -12 -6 -16 -8
-4 -9 -3 -5 4 4 7 2 12 -4 12 -6 0 -8 5 -4 13 5 7 0 6 -11 -3 -10 -8 -16 -10
-12 -4 4 7 0 15 -9 18 -8 3 -13 2 -10 -3 4 -5 -2 -7 -13 -4 -10 3 -23 14 -28
26 -9 19 -10 19 -16 3 -5 -11 -3 -15 5 -10 7 4 8 3 4 -5 -4 -6 -12 -9 -17 -5
-5 3 -7 10 -4 15 4 5 3 9 -2 10 -4 0 -16 2 -25 4 -10 2 -18 -2 -18 -8 0 -5 -3
-7 -6 -4 -4 4 -1 14 7 24 12 15 12 16 -3 10 -23 -8 -50 2 -42 15 4 6 -3 5 -15
-1 -17 -10 -22 -9 -27 4 -3 8 -11 12 -17 8 -6 -4 -7 -1 -2 7 6 10 11 9 22 -5
7 -11 13 -14 13 -8 0 7 -5 15 -10 18 -6 4 -8 10 -6 14 3 4 -1 8 -9 8 -8 0 -15
-5 -15 -11 0 -6 -4 -5 -9 3 -5 7 -6 22 -4 32 4 13 0 19 -13 19 -9 0 -15 3 -11
6 3 3 2 17 -4 31 -5 13 -5 22 0 19 4 -3 17 2 27 10 17 14 17 15 2 10 -10 -3
-18 -1 -18 5 0 6 -6 7 -12 3 -8 -4 -9 -3 -5 2 5 5 16 9 25 9 17 0 19 15 7 50
-6 18 -5 18 5 3 6 -10 16 -18 23 -18 7 0 6 4 -3 10 -11 7 -12 10 -2 10 10 0
10 4 -2 16 -22 21 -20 27 4 14 15 -8 21 -6 29 9 6 10 7 21 4 25 -6 6 12 10 30
7 5 -1 6 3 2 9 -3 6 -11 8 -16 5 -5 -4 -9 -3 -10 2 0 4 -2 16 -4 26 -2 9 1 15
6 11 5 -3 6 -11 2 -17 -4 -7 1 -6 11 2 13 11 14 16 4 23 -9 7 -6 8 10 5 12 -3
22 -1 22 4 0 5 -4 9 -8 9 -4 0 -8 9 -8 19 0 16 3 17 14 8 11 -8 13 -8 12 4 -4
26 0 39 11 39 8 0 8 -4 0 -14 -9 -11 -9 -16 0 -22 7 -4 9 -3 5 4 -3 6 -2 13 3
17 6 3 7 13 4 23 -6 14 -4 15 8 5 12 -10 15 -7 15 23 0 18 -4 34 -9 34 -4 0
-5 5 -2 11 5 6 12 4 21 -8 8 -10 13 -13 12 -6 -2 6 6 19 17 28 20 16 20 16 -2
6 -14 -7 -24 -8 -28 -1 -6 9 1 14 18 11 4 0 7 3 7 9 0 5 6 7 14 4 11 -4 14 1
12 20 -3 20 0 24 9 16 10 -8 15 -8 21 1 4 7 3 9 -3 6 -6 -4 -13 0 -16 8 -5 11
-1 12 18 5 15 -6 27 -6 30 1 4 5 3 9 -2 8 -19 -3 -33 2 -33 12 0 5 5 7 12 3 7
-5 9 0 6 14 -4 15 -2 19 8 15 8 -3 11 -10 7 -16 -3 -6 -1 -7 6 -3 9 6 9 11 0
22 -10 12 -9 13 5 8 17 -7 23 11 6 19 -6 3 -5 4 2 3 7 -2 19 4 26 13 8 9 11
10 7 4 -3 -7 -1 -13 4 -13 6 0 11 7 11 16 0 10 6 14 15 11 8 -4 17 -1 21 5 4
6 3 8 -3 5 -6 -4 -13 3 -16 15 -4 16 -3 18 6 9 17 -17 26 -13 22 10 -4 18 -2
19 12 7 15 -12 15 -11 5 8 -9 17 -9 24 2 34 11 9 17 7 26 -7 9 -16 10 -15 4 6
-4 17 -3 21 6 16 8 -5 11 -4 6 3 -3 6 3 14 15 17 16 5 18 9 9 15 -16 10 -22
38 -9 46 5 3 6 10 3 16 -4 7 -2 8 4 4 7 -4 12 -2 12 3 0 18 -5 26 -13 23 -5
-1 -6 2 -2 8 5 8 11 7 21 -1 11 -9 14 -9 14 0 0 7 5 9 13 5 7 -4 9 -3 4 2 -5
5 -13 9 -18 9 -5 0 -9 3 -9 8 0 4 0 10 0 13 0 4 11 -1 24 -10 16 -10 27 -12
31 -6 4 6 3 10 -2 9 -20 -4 -27 2 -13 12 13 9 13 10 -1 6 -13 -4 -15 0 -12 21
2 15 4 36 4 47 0 16 2 17 9 5 8 -13 11 -13 22 -1 7 8 8 11 2 8 -7 -4 -15 0
-18 9 -3 8 -2 12 4 9 6 -3 10 3 10 14 0 15 5 19 20 16 12 -2 18 0 15 6 -4 5
-11 7 -16 4 -5 -4 -9 -1 -9 5 0 6 -6 8 -12 4 -7 -4 -5 2 5 13 9 11 14 24 10
29 -5 5 2 1 14 -9 16 -14 23 -15 29 -6 4 8 3 10 -5 5 -16 -10 -26 21 -11 39 6
7 18 11 26 8 8 -3 14 1 14 8 0 7 3 9 6 6 4 -4 1 -13 -5 -21 -10 -12 -9 -15 8
-13 12 1 20 6 18 12 -1 6 3 10 8 10 6 0 8 -4 7 -10 -2 -5 0 -7 4 -3 4 4 13 3
21 -4 11 -9 13 -8 11 3 -2 8 3 13 10 11 6 -1 11 1 10 5 -4 20 15 41 34 38 11
-3 18 -2 14 2 -3 4 0 13 7 22 8 9 17 25 21 35 5 16 4 17 -9 6 -8 -7 -15 -9
-15 -4 1 12 30 50 30 39 0 -5 6 0 14 10 10 14 11 25 3 42 -8 17 -13 20 -19 11
-5 -8 -8 -9 -8 -2 0 6 7 17 15 24 8 7 15 17 15 22 0 5 -7 2 -16 -6 -14 -14
-34 -14 -34 0 0 3 5 2 10 -1 6 -3 10 2 10 11 0 10 -3 15 -6 11 -9 -9 -34 19
-34 37 0 9 6 16 13 16 8 0 8 3 -2 9 -8 5 -22 8 -32 6 -9 -2 -25 5 -34 16 -16
17 -16 19 -1 25 20 8 21 21 1 21 -8 0 -12 -4 -9 -9 3 -4 1 -8 -4 -8 -6 0 -9
10 -8 23 0 13 6 24 13 24 7 0 9 -5 6 -10 -3 -6 -1 -7 6 -3 9 6 9 11 0 22 -10
12 -9 13 4 8 12 -4 14 0 10 18 -4 18 -3 20 6 8 6 -8 11 -10 11 -4 0 6 -3 14
-7 17 -3 4 -8 19 -9 34 -2 23 -1 25 7 10 6 -9 7 -22 3 -29 -4 -7 -3 -8 4 -4 7
4 9 18 6 32 -4 14 -2 24 5 24 6 0 10 6 9 13 -2 6 3 11 10 9 8 -1 11 2 7 7 -3
6 -13 7 -23 4 -14 -6 -15 -4 -5 9 7 8 10 18 6 21 -3 4 2 7 13 7 16 0 16 2 4
10 -11 7 -18 4 -26 -12 -10 -18 -12 -18 -17 -4 -4 10 -3 15 3 11 14 -9 12 8
-2 24 -8 9 -8 11 -2 8 7 -4 15 0 18 9 11 29 6 38 -10 18 -14 -18 -15 -18 -4 4
6 12 16 22 23 22 7 0 4 5 -6 11 -15 9 -16 13 -5 27 12 15 11 16 -5 3 -23 -18
-33 -8 -12 13 9 9 12 16 6 16 -6 0 -12 -1 -13 -2 -8 -6 -46 37 -41 45 4 6 1 7
-7 2 -10 -6 -12 -4 -7 9 5 11 3 15 -5 10 -7 -5 -9 -2 -5 8 4 12 1 14 -14 11
-11 -3 -22 -9 -25 -14 -3 -5 -10 -9 -15 -9 -6 0 -8 4 -5 9 4 5 3 11 -1 14 -5
2 -2 2 5 1 6 -2 19 -1 27 2 13 5 12 9 -5 24 -11 9 -16 20 -13 24 4 4 0 4 -10
0 -14 -5 -16 -2 -10 12 6 18 5 18 -18 -1 -18 -15 -20 -16 -10 -2 7 9 10 17 5
18 -5 0 0 4 11 9 16 7 17 9 3 9 -9 1 -22 -7 -28 -16 -8 -15 -9 -13 -4 10 5 21
2 27 -10 27 -9 0 -16 5 -16 11 0 6 7 8 18 4 14 -5 15 -4 4 7 -11 11 -16 10
-28 -6 -8 -11 -14 -15 -14 -9 0 7 5 15 11 19 8 4 7 9 -2 16 -10 6 -7 7 9 3 13
-4 22 -2 22 5 0 6 -5 8 -12 4 -7 -5 -9 -2 -5 9 3 8 -1 21 -9 28 -10 8 -11 15
-4 24 8 9 8 15 0 20 -5 3 -11 4 -11 1 -5 -22 -4 -32 3 -42 9 -13 -28 -12 -39
1 -5 4 -2 5 5 1 6 -4 13 -2 13 3 1 6 2 17 3 24 3 17 -14 38 -26 31 -6 -4 -5
-10 3 -16 12 -8 12 -9 0 -6 -23 6 -23 37 0 33 25 -5 24 7 -1 23 -13 8 -20 8
-20 1 0 -5 -5 -7 -12 -3 -8 5 -3 12 16 19 27 11 27 12 7 18 -13 3 -19 1 -14
-5 3 -7 1 -8 -5 -4 -6 4 -9 13 -5 22 4 12 8 12 22 2 14 -12 15 -11 2 5 -10 13
-17 14 -26 7 -16 -13 -29 4 -30 39 0 17 -6 25 -24 28 -13 2 -29 -1 -36 -7 -9
-8 -12 -5 -11 12 1 16 -4 22 -14 20 -12 -3 -13 -1 -2 9 18 19 15 34 -5 18 -11
-10 -14 -10 -9 -1 9 15 -6 16 -22 0 -9 -9 -12 -9 -12 0 0 7 4 12 9 12 5 0 11
9 14 20 3 11 1 18 -3 15 -12 -7 -51 45 -43 59 3 6 0 6 -8 -1 -16 -15 -43 -17
-34 -3 3 6 -1 10 -10 10 -10 0 -14 -5 -10 -12 4 -7 0 -5 -8 4 -8 10 -18 14
-22 10 -5 -4 -5 -2 -2 4 4 7 1 17 -7 23 -10 8 -16 9 -19 1 -3 -6 -4 -5 -2 2 1
7 8 12 14 10 17 -3 13 6 -8 18 -14 7 -22 7 -27 -2 -5 -7 -3 -8 5 -3 10 6 11 3
1 -14 -9 -18 -30 -21 -30 -5 0 3 5 2 11 -2 8 -4 9 0 4 15 -4 14 -1 23 9 27 9
3 16 10 16 14 0 12 -28 6 -43 -10 -9 -10 -9 -11 0 -6 9 5 11 2 6 -10 -4 -11
-8 -13 -11 -6 -2 7 -9 9 -14 6 -6 -4 -8 -2 -5 3 9 14 -13 31 -35 28 -10 -2
-21 2 -25 7 -3 7 -1 8 5 4 20 -12 13 6 -10 25 -25 23 -25 23 -25 4 0 -8 5 -15
10 -15 6 0 7 -3 4 -6 -12 -13 -35 17 -30 39 4 21 4 21 -10 -2 -12 -20 -15 -21
-20 -7 -4 10 -3 15 1 12 5 -3 9 1 9 8 0 7 -6 13 -13 13 -7 0 -11 -4 -8 -9 3
-4 0 -8 -7 -8 -8 0 -8 -4 1 -15 7 -9 8 -15 2 -15 -5 0 -13 7 -16 16 -5 13 -9
14 -21 4 -10 -9 -15 -9 -15 -1 0 10 13 15 33 12 11 -2 9 8 -5 23 -10 10 -15 9
-28 -7 -15 -18 -17 -19 -23 -3 -4 9 -3 14 2 11 5 -3 12 -2 15 3 2 4 -6 9 -20
10 -27 2 -30 -7 -11 -27 10 -11 9 -12 -2 -6 -11 6 -13 4 -8 -8 3 -10 2 -17 -3
-17 -6 0 -10 7 -10 16 0 9 -6 14 -12 11 -7 -2 -12 -9 -11 -15 1 -5 -7 -8 -19
-4 l-22 5 22 8 c12 5 20 14 18 21 -1 7 -1 10 1 6 3 -5 9 -8 14 -8 6 0 8 4 4 9
-3 6 3 14 12 20 10 6 13 11 6 11 -6 0 -15 -5 -19 -11 -4 -8 -9 -7 -15 2 -6 10
-9 10 -9 2 0 -6 -9 -10 -20 -8 -25 5 -25 1 -2 -21 15 -16 15 -17 0 -12 -9 4
-19 2 -22 -5 -3 -8 -5 -8 -5 2 -1 11 -4 11 -18 0 -14 -12 -16 -12 -8 0 6 11 4
13 -8 8 -11 -4 -14 -2 -10 9 4 10 0 12 -11 8 -11 -4 -16 -2 -14 6 2 7 -10 14
-27 16 -17 2 -25 0 -17 -5 10 -6 9 -12 -5 -27 -10 -11 -14 -14 -10 -7 5 6 4
20 -2 30 -8 14 -11 15 -11 3 0 -11 -6 -8 -20 9 -11 13 -20 18 -20 13z m101
-41 c-6 -10 -8 -21 -6 -25 3 -3 2 -3 -2 0 -11 8 -10 28 2 36 15 12 17 10 6
-11z m-165 -19 c-17 -16 -18 -16 -5 5 7 12 15 20 18 17 3 -2 -3 -12 -13 -22z
m-239 -19 c0 -7 -4 -13 -8 -13 -4 0 -9 6 -12 13 -3 8 0 14 7 14 7 0 13 -6 13
-14z m-171 -38 c-3 -8 -1 -15 4 -15 6 0 10 -4 10 -9 0 -6 -9 -8 -20 -6 -21 4
-36 -10 -21 -20 6 -3 7 -13 4 -22 -5 -12 -3 -14 7 -8 8 5 11 4 6 -3 -4 -6 -13
-9 -22 -5 -9 3 -14 0 -12 -8 2 -8 -3 -13 -11 -11 -9 2 -11 -3 -7 -14 5 -14 4
-15 -9 -4 -12 10 -13 15 -3 21 6 4 16 5 22 2 5 -4 6 -1 1 7 -4 7 -2 16 5 20 8
5 9 10 2 14 -6 3 -13 -3 -17 -14 -8 -26 -24 -26 -22 -1 0 11 4 18 8 16 3 -3
14 4 24 15 10 11 14 20 10 20 -4 0 0 9 10 20 21 24 40 26 31 5z m968 -51 c3
-8 2 -12 -4 -9 -6 3 -10 10 -10 16 0 14 7 11 14 -7z m-1100 -49 c-4 -8 -11
-15 -16 -15 -6 0 -5 6 2 15 7 8 14 15 16 15 2 0 1 -7 -2 -15z m28 -2 c-6 -2
-9 -10 -6 -15 4 -7 2 -8 -5 -4 -13 9 -5 26 12 25 9 0 8 -2 -1 -6z m1213 -32
c3 -5 2 -12 -3 -15 -5 -3 -9 1 -9 9 0 17 3 19 12 6z m72 -7 c-3 -3 4 -16 16
-28 13 -11 19 -18 14 -14 -5 3 -17 4 -26 1 -12 -4 -13 -3 -3 5 11 7 11 10 -3
16 -15 5 -13 26 2 26 4 0 4 -3 0 -6z m-1370 -21 c-4 -26 -17 -44 -28 -38 -5 4
-9 -1 -9 -10 0 -10 5 -13 12 -9 7 4 8 3 4 -4 -5 -8 -13 -9 -25 -2 -24 12 -35
0 -15 -15 15 -11 15 -12 0 -12 -9 0 -16 4 -16 9 0 4 -5 8 -11 8 -5 0 -8 -4 -5
-8 12 -19 -10 -27 -27 -9 -11 11 -13 17 -5 15 18 -3 60 21 53 31 -7 12 22 34
34 27 6 -4 15 3 21 14 13 25 21 26 17 3z m-185 -105 c-7 -7 -12 -8 -12 -2 0
14 12 26 19 19 2 -3 -1 -11 -7 -17z m1712 -30 c-3 -4 -9 -8 -15 -8 -5 0 -9 4
-9 8 0 5 7 9 15 9 8 0 12 -4 9 -9z m-1960 -72 c-26 -31 -40 -42 -45 -34 -9 14
19 50 32 42 8 -5 13 10 10 30 -1 5 5 6 14 3 8 -4 15 -1 15 5 0 6 3 9 6 5 3 -3
-11 -26 -32 -51z m117 7 c13 -16 12 -17 -3 -4 -10 7 -18 15 -18 17 0 8 8 3 21
-13z m-32 -7 c9 -11 9 -16 -1 -22 -7 -4 -10 -4 -6 1 4 4 3 14 -3 22 -6 7 -9
13 -6 13 2 0 10 -6 16 -14z m-49 -34 c0 -13 -12 -22 -22 -16 -10 6 -1 24 13
24 5 0 9 -4 9 -8z m-82 -72 c-2 -23 -5 -27 -18 -20 -13 7 -19 37 -11 57 1 1 8
0 16 -3 9 -4 14 -17 13 -34z m2142 -45 c0 -2 -10 -9 -22 -15 -22 -11 -22 -10
-4 4 21 17 26 19 26 11z m-30 -39 c0 -2 -8 -10 -17 -17 -16 -13 -17 -12 -4 4
13 16 21 21 21 13z m-2145 -87 c11 -16 1 -19 -13 -3 -7 8 -8 14 -3 14 5 0 13
-5 16 -11z m9 -45 c3 -8 2 -12 -4 -9 -6 3 -10 10 -10 16 0 14 7 11 14 -7z
m2236 4 c0 -4 -6 -8 -14 -8 -8 0 -17 4 -20 8 -2 4 4 8 15 8 10 0 19 -4 19 -8z
m85 -89 c12 -13 13 -19 4 -25 -8 -4 -10 -3 -5 4 7 11 -6 17 -27 13 -5 -1 -6 3
-2 9 3 5 1 18 -4 27 -7 13 -10 14 -11 4 0 -8 -3 -12 -6 -8 -3 3 -3 11 2 18 5
9 11 7 20 -7 7 -10 20 -26 29 -35z m-2330 13 c-3 -3 0 -11 6 -19 17 -20 5 -16
-14 5 -15 16 -15 19 -2 19 8 0 13 -3 10 -5z m2390 -100 c-3 -3 -11 0 -18 7 -9
10 -8 11 6 5 10 -3 15 -9 12 -12z m-2360 -111 c-3 -6 -11 -11 -16 -11 -5 0 -4
6 3 14 14 16 24 13 13 -3z m2 -40 c-1 -15 -4 -17 -14 -9 -7 5 -10 14 -7 19 10
16 23 9 21 -10z m2358 9 c3 -5 1 -10 -4 -10 -6 0 -11 5 -11 10 0 6 2 10 4 10
3 0 8 -4 11 -10z m-2395 -126 c8 -8 9 -14 4 -13 -5 1 -15 1 -23 0 -11 -1 -11
-4 0 -18 13 -16 12 -17 -3 -5 -14 11 -15 17 -5 33 14 23 12 22 27 3z m2338
-89 c-3 -3 -9 2 -12 12 -6 14 -5 15 5 6 7 -7 10 -15 7 -18z m77 -35 c-3 -5
-14 -10 -23 -9 -14 0 -13 2 3 9 27 11 27 11 20 0z m-41 -138 c16 -12 25 -22
21 -22 -5 0 -17 8 -27 17 -15 14 -21 14 -31 3 -8 -9 -9 -11 0 -6 6 3 28 -5 48
-18 20 -14 44 -22 53 -19 13 4 12 2 -3 -11 -19 -15 -19 -17 -3 -30 17 -12 17
-14 0 -29 -16 -14 -19 -14 -38 1 -12 9 -24 24 -27 32 -4 10 -6 8 -6 -6 -1 -12
6 -24 14 -28 24 -9 17 -23 -11 -23 -17 0 -22 2 -13 7 10 7 10 11 0 24 -8 9
-10 23 -6 33 18 41 16 55 -6 48 -15 -5 -19 -4 -15 4 4 6 1 11 -6 11 -8 0 -7 4
4 11 10 5 15 17 12 27 -4 10 -2 13 3 7 4 -6 21 -21 37 -33z m-54 14 c0 -2 -7
-7 -16 -10 -8 -3 -12 -2 -9 4 6 10 25 14 25 6z m85 -6 c3 -6 -1 -7 -9 -4 -18
7 -21 14 -7 14 6 0 13 -4 16 -10z m42 4 c-3 -3 -12 -4 -19 -1 -8 3 -5 6 6 6
11 1 17 -2 13 -5z m35 -26 c-5 -5 -25 -11 -43 -13 -19 -2 -25 -1 -15 2 15 4
16 7 5 15 -10 7 -6 8 14 5 15 -2 27 0 27 5 0 5 5 6 11 2 7 -4 7 -10 1 -16z
m-136 -33 c-1 -8 -8 -21 -14 -27 -9 -9 -12 -8 -12 6 0 16 -2 17 -17 5 -13 -11
-15 -11 -9 -1 7 11 18 18 53 31 1 1 0 -6 -1 -14z m-6 -69 c0 -2 -8 -10 -17
-17 -16 -13 -17 -12 -4 4 13 16 21 21 21 13z m40 -40 c0 -2 -7 -9 -15 -16 -13
-11 -14 -10 -9 4 5 14 24 23 24 12z m-135 -16 c-3 -5 -12 -10 -18 -10 -7 0 -6
4 3 10 19 12 23 12 15 0z m-2118 -92 c-3 -7 -5 -2 -5 12 0 14 2 19 5 13 2 -7
2 -19 0 -25z m10 -133 c0 -8 -4 -12 -9 -9 -4 3 -8 9 -8 15 0 5 4 9 8 9 5 0 9
-7 9 -15z m2023 5 c0 -5 -2 -10 -4 -10 -3 0 -8 5 -11 10 -3 6 -1 10 4 10 6 0
11 -4 11 -10z m-2020 -59 c0 -5 -6 -14 -14 -20 -12 -10 -14 -9 -11 6 2 10 4
19 4 21 2 6 21 1 21 -7z m1969 -111 c-6 -5 -18 -6 -26 -3 -19 8 -16 11 13 11
17 0 22 -3 13 -8z m-1929 -104 c0 -2 -7 -7 -16 -10 -8 -3 -12 -2 -9 4 6 10 25
14 25 6z m94 -114 c3 -5 -1 -9 -9 -9 -8 0 -12 4 -9 9 3 4 7 8 9 8 2 0 6 -4 9
-8z m88 -169 c-6 -2 -9 -10 -6 -15 4 -7 2 -8 -5 -4 -13 9 -5 26 12 25 9 0 8
-2 -1 -6z m1441 -7 c4 -10 1 -13 -9 -9 -7 3 -14 9 -14 14 0 14 17 10 23 -5z
m-107 -192 c-7 -39 -17 -43 -14 -6 1 18 6 32 10 32 5 0 6 -12 4 -26z m-47
-107 c0 -9 -2 -8 -6 1 -2 6 -10 9 -15 6 -7 -4 -8 -2 -4 5 9 13 26 5 25 -12z
m-2149 -157 c0 -5 -5 -10 -11 -10 -5 0 -7 5 -4 10 3 6 8 10 11 10 2 0 4 -4 4
-10z m-782 -165 c-3 -3 -9 2 -12 12 -6 14 -5 15 5 6 7 -7 10 -15 7 -18z m-198
-39 c0 -2 -7 -7 -16 -10 -8 -3 -12 -2 -9 4 6 10 25 14 25 6z m4404 -375 c-3
-3 -15 6 -27 18 l-22 24 27 -19 c14 -10 24 -21 22 -23z m-5040 -719 c3 -5 -1
-9 -9 -9 -8 0 -12 4 -9 9 3 4 7 8 9 8 2 0 6 -4 9 -8z m5496 -216 c0 -3 -4 -8
-10 -11 -5 -3 -10 -1 -10 4 0 6 5 11 10 11 6 0 10 -2 10 -4z m20 -226 c0 -5
-2 -10 -4 -10 -3 0 -8 5 -11 10 -3 6 -1 10 4 10 6 0 11 -4 11 -10z m40 -460
c0 -5 -2 -10 -4 -10 -3 0 -8 5 -11 10 -3 6 -1 10 4 10 6 0 11 -4 11 -10z m27
-436 c-3 -3 -12 -4 -19 -1 -8 3 -5 6 6 6 11 1 17 -2 13 -5z m-6000 -111 c-4
-3 -2 -12 5 -20 8 -11 7 -12 -6 -7 -9 3 -16 9 -16 13 0 9 11 21 18 21 3 0 2
-3 -1 -7z m-27 -213 c0 -5 -5 -10 -11 -10 -5 0 -7 5 -4 10 3 6 8 10 11 10 2 0
4 -4 4 -10z m-26 -129 c3 -5 -1 -14 -8 -20 -12 -10 -14 -9 -11 6 2 10 4 19 4
21 2 5 10 2 15 -7z m6070 -146 c-4 -8 -11 -12 -16 -9 -6 4 -5 10 3 15 19 12
19 11 13 -6z m-1027 -490 c4 -4 2 -5 -4 -1 -8 4 -13 1 -13 -9 0 -9 5 -13 10
-10 7 4 10 -6 10 -27 -2 -40 3 -65 15 -75 4 -5 5 -1 0 7 -5 8 -6 13 -2 10 3
-3 5 -8 4 -11 -1 -3 5 -14 13 -24 8 -11 10 -16 3 -12 -6 4 -14 3 -17 -2 -3 -5
1 -12 9 -15 13 -4 13 -9 3 -25 -9 -16 -9 -23 3 -37 12 -16 12 -17 -2 -12 -13
5 -16 2 -12 -13 3 -10 9 -16 14 -13 11 6 0 -25 -15 -45 -8 -11 -8 -13 0 -8 13
7 27 -17 16 -27 -10 -10 -9 -46 1 -46 5 0 3 -8 -4 -17 -8 -9 -9 -14 -3 -10 7
4 11 -7 12 -29 1 -19 5 -40 9 -47 11 -18 14 -49 4 -43 -5 3 -11 -1 -14 -9 -4
-9 -1 -12 7 -9 9 3 13 -6 15 -28 1 -18 3 -50 5 -70 1 -21 -1 -35 -5 -32 -4 2
-10 0 -14 -6 -3 -5 -1 -10 4 -10 6 0 11 -5 11 -11 0 -6 -7 -8 -16 -5 -15 6
-15 4 1 -20 9 -15 12 -23 6 -20 -6 4 -11 2 -11 -4 0 -6 -3 -9 -7 -7 -5 3 -8
-6 -8 -19 0 -17 4 -23 14 -19 10 4 9 -1 -4 -15 -11 -12 -13 -20 -6 -20 7 0 9
-5 6 -10 -4 -6 -12 -8 -18 -4 -7 3 -3 -2 7 -10 19 -16 19 -16 -5 -17 -13 0
-18 -3 -11 -6 6 -2 12 -14 12 -24 0 -14 -4 -18 -12 -13 -8 5 -7 0 2 -11 9 -11
10 -16 3 -11 -7 4 -13 2 -13 -3 0 -6 5 -11 12 -11 6 0 3 -7 -8 -15 -13 -10
-14 -13 -3 -10 10 4 16 0 16 -9 0 -8 -4 -13 -9 -10 -13 8 -10 -10 5 -25 10
-11 9 -13 -3 -9 -12 5 -16 -1 -14 -22 1 -16 5 -33 9 -39 3 -6 2 -11 -4 -11 -6
0 -8 -7 -5 -15 4 -8 11 -12 17 -8 6 3 3 -4 -6 -16 -16 -25 -12 -56 6 -44 6 4
0 -9 -13 -28 -20 -28 -21 -31 -4 -16 20 16 21 16 19 -3 -1 -11 -5 -23 -10 -27
-4 -5 -5 -2 0 6 6 10 4 12 -5 6 -10 -6 -9 -11 5 -22 11 -7 14 -13 8 -13 -16 0
-24 -28 -11 -36 6 -4 8 -3 4 4 -3 6 -3 13 2 16 4 2 8 -6 8 -19 0 -13 -5 -21
-10 -19 -6 3 -2 -2 8 -10 11 -9 14 -16 8 -16 -7 0 -12 -5 -12 -11 0 -5 3 -8 8
-5 4 2 6 -13 4 -35 -3 -25 0 -39 8 -39 7 0 10 -13 9 -34 -2 -19 1 -39 5 -43 5
-5 6 -2 1 6 -6 10 -4 12 4 7 9 -6 9 -11 -1 -24 -11 -14 -10 -15 7 -9 20 7 20
7 1 -8 -17 -13 -17 -15 -4 -15 9 0 20 -4 23 -10 4 -6 -1 -7 -12 -3 -17 6 -17
5 1 -15 11 -12 16 -25 13 -29 -4 -3 -7 -1 -7 5 0 7 -5 12 -10 12 -7 0 -7 -6
-2 -17 5 -10 7 -24 4 -32 -3 -10 0 -11 9 -5 12 7 12 5 0 -9 -11 -14 -11 -17 0
-17 8 0 6 -6 -7 -16 -10 -8 -14 -13 -8 -10 7 3 14 -1 18 -9 3 -8 2 -14 -2 -14
-19 3 -25 -2 -12 -11 12 -8 12 -10 -5 -10 -16 0 -17 -2 -5 -9 8 -6 18 -7 22
-5 15 9 8 -3 -9 -17 -14 -12 -16 -12 -8 0 5 10 4 12 -4 7 -6 -4 -9 -11 -6 -16
3 -5 1 -18 -4 -28 -7 -13 -7 -22 1 -30 9 -9 9 -12 -1 -12 -10 0 -11 -3 -2 -14
9 -11 9 -16 0 -22 -8 -5 -9 -3 -4 6 5 8 4 11 -2 7 -5 -3 -8 -24 -7 -47 1 -25
-2 -40 -10 -40 -6 0 -4 -5 4 -10 8 -5 11 -10 5 -10 -5 0 -10 -13 -11 -30 -1
-18 3 -27 10 -24 6 3 3 -1 -6 -9 -19 -15 -25 -33 -9 -22 5 3 13 1 16 -5 4 -6
3 -10 -2 -9 -20 4 -24 -2 -12 -18 12 -14 12 -16 -2 -11 -9 4 -16 1 -16 -8 0
-7 5 -11 10 -7 5 3 6 -4 2 -16 -4 -13 -1 -29 7 -38 7 -9 8 -14 2 -10 -8 4 -13
-6 -16 -29 -3 -25 0 -38 10 -42 12 -4 11 -7 -2 -14 -13 -7 -14 -13 -4 -31 10
-21 10 -21 -7 -7 -17 14 -18 14 -5 -9 11 -22 11 -23 -6 -17 -18 6 -18 5 -1 -8
18 -14 24 -32 7 -21 -6 4 -7 -1 -3 -12 6 -16 5 -17 -12 -3 -17 14 -17 14 -5
-7 8 -12 19 -19 25 -15 5 3 4 -1 -2 -9 -7 -9 -11 -25 -8 -38 2 -14 0 -19 -7
-15 -7 5 -9 1 -5 -9 3 -10 2 -17 -3 -17 -6 0 -10 9 -10 20 0 11 5 20 12 20 6
0 8 3 5 6 -4 4 -13 2 -21 -5 -11 -9 -15 -8 -19 3 -4 9 -2 18 3 21 14 9 0 35
-19 36 -12 0 -12 2 4 9 11 5 14 9 6 9 -11 1 -11 4 -1 16 10 12 9 16 -4 21 -9
3 -13 10 -10 15 3 5 10 6 16 3 7 -4 8 -2 4 4 -4 6 -14 8 -24 5 -15 -6 -15 -5
-3 10 7 9 10 17 5 17 -13 0 -14 51 -2 75 11 20 11 20 -13 0 -13 -11 -18 -13
-11 -5 6 8 12 29 12 47 0 19 -5 33 -12 34 -10 0 -10 2 0 6 10 4 10 8 1 19 -14
17 2 19 20 2 11 -10 10 -8 0 9 -8 13 -17 23 -21 23 -5 0 -8 5 -8 11 0 6 8 8
18 5 10 -4 7 2 -8 14 -14 11 -17 18 -8 14 17 -6 18 5 3 40 -5 12 -3 21 6 27
10 6 10 9 2 9 -7 0 -13 7 -13 16 0 8 5 12 10 9 6 -3 10 -2 10 3 0 5 -10 13
-22 19 -19 8 -20 10 -4 16 12 5 15 3 10 -6 -4 -6 -3 -8 1 -4 11 10 16 39 5 32
-4 -3 -10 2 -13 10 -4 10 -1 12 10 8 13 -5 15 -2 10 12 -4 9 -3 23 2 29 9 11
11 17 11 37 0 5 4 8 9 5 5 -3 12 1 15 10 3 8 2 12 -4 9 -6 -3 -10 -1 -10 4 0
10 14 15 33 12 5 -1 6 3 2 9 -3 6 -11 8 -16 5 -5 -3 -6 1 -3 10 4 9 13 14 20
11 8 -3 11 0 7 10 -3 7 -9 14 -15 14 -5 0 -6 5 -3 10 5 8 12 7 23 -2 14 -11
14 -10 -1 12 -19 27 -22 45 -8 35 6 -3 7 6 2 23 -5 16 -5 36 1 45 6 12 5 15
-4 12 -9 -4 -14 2 -14 14 0 11 4 17 8 15 4 -3 8 0 8 5 0 6 -4 11 -10 11 -5 0
-10 5 -10 11 0 5 4 8 8 5 4 -2 8 4 8 15 0 10 -3 19 -7 19 -14 0 -17 41 -3 54
12 13 11 15 -8 19 l-23 4 22 8 22 7 -22 20 c-12 11 -17 17 -11 14 8 -4 11 3
10 19 0 14 -4 25 -8 25 -12 0 -9 55 2 66 7 7 6 11 -4 11 -8 0 -12 -5 -9 -10 3
-6 1 -7 -6 -3 -9 6 -9 11 0 22 6 8 7 14 2 14 -6 0 -9 17 -8 38 2 46 -4 64 -19
55 -6 -3 -6 -1 2 8 6 7 12 17 12 22 0 4 -6 5 -12 1 -8 -5 -7 0 2 11 11 14 12
17 1 11 -9 -6 -12 -5 -9 5 3 8 11 13 17 11 7 -1 10 2 6 8 -3 6 -11 8 -16 5 -5
-4 -9 -1 -9 4 0 6 5 11 12 11 6 0 4 6 -7 13 -14 11 -15 16 -5 22 9 6 11 4 5
-6 -5 -8 -4 -11 1 -6 5 5 8 12 7 15 -1 4 4 13 10 21 10 12 9 12 -10 2 -15 -7
-23 -8 -23 -1 0 5 5 10 10 10 6 0 10 5 10 11 0 5 -6 7 -12 4 -7 -4 -4 1 6 9
17 14 16 20 -5 18 -10 -1 -1 59 13 75 7 9 8 14 2 10 -7 -4 -14 0 -18 8 -3 8 3
19 12 24 15 9 15 10 -3 11 -17 0 -17 2 -5 10 8 5 11 10 5 10 -5 0 -3 5 5 10 8
5 10 10 4 10 -7 0 -15 7 -18 16 -5 13 -3 14 7 6 10 -8 13 -6 14 9 1 13 -2 17
-10 12 -7 -4 -6 0 2 10 11 14 11 17 0 17 -8 0 -5 6 7 14 18 13 18 15 2 21 -15
6 -16 9 -3 21 16 16 9 47 -9 37 -6 -3 -3 3 7 15 11 11 17 25 14 30 -11 17 -16
62 -6 57 5 -4 9 -3 10 2 0 4 2 16 4 26 2 9 -2 17 -8 17 -8 0 -7 4 1 12 13 13
16 32 4 24 -4 -2 -8 6 -8 19 0 13 4 21 8 19 12 -8 10 10 -3 23 -8 8 -7 13 2
18 8 6 10 4 4 -5 -5 -8 -4 -11 2 -7 15 9 9 57 -7 67 -12 8 -9 10 10 11 18 1
20 3 7 6 -18 5 -18 5 0 20 16 13 16 14 1 9 -12 -3 -15 -1 -11 9 3 8 10 12 16
8 6 -3 7 -1 3 5 -4 7 -1 12 6 12 8 0 9 3 3 8 -25 18 -36 40 -24 48 8 4 9 3 5
-4 -4 -7 -2 -12 3 -12 11 0 15 23 12 78 -1 17 3 32 9 32 6 0 8 5 5 10 -3 6 -1
10 5 10 6 0 9 4 6 9 -7 11 21 8 31 -4z m-96 -442 c13 -16 12 -17 -3 -4 -10 7
-18 15 -18 17 0 8 8 3 21 -13z m1189 -427 c0 -3 -4 -8 -10 -11 -5 -3 -10 -1
-10 4 0 6 5 11 10 11 6 0 10 -2 10 -4z m-1193 -271 c0 -8 -4 -12 -9 -9 -5 3
-6 10 -3 15 9 13 12 11 12 -6z m163 -715 c0 -5 -5 -10 -11 -10 -5 0 -7 5 -4
10 3 6 8 10 11 10 2 0 4 -4 4 -10z m-12 -105 c-3 -3 -9 2 -12 12 -6 14 -5 15
5 6 7 -7 10 -15 7 -18z m-5188 -331 c0 -8 -19 -13 -24 -6 -3 5 1 9 9 9 8 0 15
-2 15 -3z m5483 -917 c-3 -4 -10 -3 -17 2 -7 6 -15 9 -17 6 -3 -2 -10 4 -16
14 -10 17 -9 17 22 2 18 -9 31 -20 28 -24z m79 25 c-7 -2 -9 -8 -6 -14 3 -5
14 -2 25 8 10 9 19 13 19 8 0 -5 -9 -15 -21 -22 -11 -7 -19 -19 -16 -26 3 -7
-5 -13 -20 -14 -14 -1 -22 2 -18 8 4 6 11 7 17 4 5 -4 4 4 -2 17 -10 17 -10
24 -1 27 6 2 9 8 6 13 -4 5 2 6 11 2 11 -4 13 -8 6 -11z m-5435 -14 c-3 -8 -6
-5 -6 6 -1 11 2 17 5 13 3 -3 4 -12 1 -19z m5294 -8 c29 0 33 -1 45 -11 7 -6
16 -4 25 7 10 13 10 17 -2 24 -10 7 -9 9 8 8 11 -1 19 -7 16 -14 -2 -7 1 -15
7 -19 8 -5 8 -10 0 -20 -6 -7 -9 -18 -8 -25 2 -7 -4 -15 -12 -17 -9 -3 -11 -1
-5 4 6 4 11 22 12 38 l1 30 -11 -25 c-7 -15 -21 -25 -34 -26 -13 -1 -20 3 -17
7 3 5 11 6 17 3 9 -5 8 -3 0 6 -10 11 -16 10 -33 -5 -19 -17 -24 -16 -17 3 1
4 6 6 10 4 5 -1 6 2 2 8 -3 5 -21 8 -38 5 -26 -4 -28 -3 -14 5 9 6 18 19 18
28 1 15 2 15 6 0 2 -10 13 -18 24 -18z m-5158 -16 c20 0 37 4 37 10 0 7 3 8 8
1 10 -14 56 -20 48 -6 -5 7 -1 8 9 5 8 -4 20 -15 26 -25 5 -11 14 -17 20 -14
5 4 6 12 3 18 -4 7 -3 8 2 4 5 -5 9 -12 10 -15 0 -4 4 -15 9 -25 5 -12 2 -22
-11 -32 -11 -8 -15 -15 -10 -15 4 0 -2 -9 -15 -20 -26 -21 -19 -26 13 -9 28
15 45 -3 21 -22 -16 -13 -17 -12 -4 3 16 22 3 23 -23 3 -17 -13 -21 -12 -32 3
-13 16 -13 16 -14 0 0 -10 -9 -22 -20 -28 -16 -9 -19 -8 -13 6 5 15 4 15 -20
-1 -15 -9 -27 -13 -27 -9 0 5 -5 2 -11 -6 -9 -13 -10 -13 -6 0 2 8 9 15 14 15
6 0 15 4 20 9 5 5 3 6 -4 2 -8 -4 -13 -2 -13 6 0 10 -2 10 -8 1 -4 -7 -16 -10
-27 -8 -11 2 -22 4 -25 4 -3 1 2 6 10 11 8 5 10 10 4 10 -16 0 -24 -11 -17
-24 4 -6 8 -17 10 -25 1 -10 -1 -11 -10 -2 -7 7 -13 16 -13 21 -1 6 -2 15 -3
21 0 5 -7 7 -13 3 -10 -6 -10 -5 -1 8 7 8 10 18 6 21 -3 4 -7 28 -8 53 -2 35
1 44 11 40 45 -19 48 -18 24 3 -14 12 -18 19 -10 14 8 -4 32 -8 53 -9z m377 6
c0 -5 -5 -10 -11 -10 -5 0 -7 5 -4 10 3 6 8 10 11 10 2 0 4 -4 4 -10z m-104
-22 c4 -7 4 -10 -1 -6 -4 4 -15 2 -24 -5 -14 -11 -14 -10 -2 6 16 20 18 21 27
5z m-41 -26 c4 -12 8 -12 23 -1 16 13 16 13 0 -7 -16 -18 -16 -22 -2 -40 14
-18 15 -18 8 5 -4 16 -3 21 5 17 6 -4 11 -16 11 -27 0 -11 4 -18 9 -14 11 6
26 -33 17 -42 -3 -4 -6 1 -6 10 0 10 -2 17 -4 17 -2 0 -12 3 -20 6 -12 5 -15
2 -10 -10 4 -11 1 -16 -10 -16 -9 0 -16 5 -16 11 0 5 -4 7 -10 4 -6 -3 -7 1
-4 10 6 14 8 14 20 -2 9 -13 12 -14 10 -3 -6 31 -19 50 -30 43 -7 -4 -7 -1 1
9 13 15 8 28 -9 28 -5 0 -6 -4 -3 -10 4 -6 -1 -7 -11 -3 -11 4 -13 8 -6 11 7
2 10 7 8 11 -3 4 1 8 9 8 8 0 17 -7 20 -15z m5062 2 c-3 -3 -12 -4 -19 -1 -8
3 -5 6 6 6 11 1 17 -2 13 -5z m-4997 -8 c0 -3 -4 -8 -10 -11 -5 -3 -10 -1 -10
4 0 6 5 11 10 11 6 0 10 -2 10 -4z m5490 -10 c0 -2 -7 -7 -16 -10 -8 -3 -12
-2 -9 4 6 10 25 14 25 6z m-5455 -16 c3 -5 1 -10 -4 -10 -6 0 -11 5 -11 10 0
6 2 10 4 10 3 0 8 -4 11 -10z m-119 -22 c3 -4 1 -15 -6 -25 -10 -16 -10 -16
-5 4 5 18 3 22 -9 17 -9 -3 -16 -2 -16 4 0 11 25 10 36 0z m109 -6 c-3 -3 -11
0 -18 7 -9 10 -8 11 6 5 10 -3 15 -9 12 -12z m78 5 c-3 -5 -12 -6 -20 -3 -10
4 -13 1 -8 -13 7 -22 -10 -37 -21 -20 -5 8 -3 9 6 4 10 -6 12 -4 7 9 -9 23 -3
32 22 32 11 0 17 -4 14 -9z m10 -27 c-3 -12 -8 -19 -11 -16 -5 6 5 36 12 36 2
0 2 -9 -1 -20z m-79 -20 c-6 -6 -10 -3 -10 10 0 13 4 16 10 10 7 -7 7 -13 0
-20z m-100 -8 c2 -4 -9 -7 -24 -7 -16 -1 -27 2 -25 5 5 8 44 10 49 2z m-247
-24 c-3 -8 -6 -5 -6 6 -1 11 2 17 5 13 3 -3 4 -12 1 -19z m5784 -171 c-10 -9
-11 -8 -5 6 3 10 9 15 12 12 3 -3 0 -11 -7 -18z"/>
<path d="M5371 10107 c-8 -10 -7 -14 2 -14 8 0 14 6 14 14 0 7 -1 13 -2 13 -2
0 -8 -6 -14 -13z"/>
<path d="M5145 9921 c-3 -5 0 -13 6 -17 7 -4 9 -3 5 4 -3 5 0 13 6 15 9 4 10
6 1 6 -6 1 -14 -3 -18 -8z"/>
<path d="M4704 9650 c0 -13 4 -16 10 -10 7 7 7 13 0 20 -6 6 -10 3 -10 -10z"/>
<path d="M7064 8673 c4 -4 16 -8 28 -10 28 -4 18 6 -12 12 -12 2 -20 1 -16 -2z"/>
<path d="M7076 8641 c-7 -10 28 -43 37 -35 8 8 -11 44 -23 44 -5 0 -11 -4 -14
-9z m28 -17 c5 -14 4 -15 -9 -4 -17 14 -19 20 -6 20 5 0 12 -7 15 -16z"/>
<path d="M7147 3449 c7 -7 15 -10 18 -7 3 3 -2 9 -12 12 -14 6 -15 5 -6 -5z"/>
<path d="M7096 2152 c-2 -4 -1 -14 4 -22 7 -11 9 -9 7 8 -1 24 -3 26 -11 14z"/>
<path d="M2276 348 c3 -5 10 -6 15 -3 13 9 11 12 -6 12 -8 0 -12 -4 -9 -9z"/>
<path d="M2330 346 c0 -8 4 -17 9 -20 5 -4 7 3 4 14 -6 23 -13 26 -13 6z"/>
<path d="M2373 345 c0 -8 4 -12 9 -9 4 3 8 9 8 15 0 5 -4 9 -8 9 -5 0 -9 -7
-9 -15z"/>
<path d="M2206 335 c4 -8 11 -15 16 -15 6 0 5 6 -2 15 -7 8 -14 15 -16 15 -2
0 -1 -7 2 -15z"/>
<path d="M2381 321 c-11 -7 -9 -10 9 -16 12 -4 19 -10 14 -14 -12 -8 -16 -31
-6 -31 4 0 15 12 26 26 14 21 16 28 6 37 -10 9 -12 8 -7 -5 7 -20 6 -21 -18
-12 -13 5 -14 8 -3 15 7 5 9 9 3 9 -5 0 -16 -4 -24 -9z"/>
<path d="M2236 303 c-6 -14 -5 -15 5 -6 7 7 10 15 7 18 -3 3 -9 -2 -12 -12z"/>
<path d="M2348 287 c22 -10 29 -31 13 -41 -4 -3 -11 -2 -15 1 -10 11 -37 12
-30 2 3 -5 10 -7 15 -3 6 3 13 -4 16 -17 l6 -23 9 23 c4 12 12 20 17 16 6 -3
9 4 8 15 -1 11 -5 20 -10 20 -4 0 -6 3 -4 8 3 4 -7 8 -21 8 -26 2 -26 1 -4 -9z"/>
<path d="M2210 264 c6 -6 6 -15 2 -19 -4 -5 -1 -5 6 -1 7 4 10 11 7 16 -3 5 3
11 12 13 10 3 6 4 -9 4 -19 -1 -24 -5 -18 -13z"/>
<path d="M6016 10222 c-6 -10 16 -36 34 -40 10 -1 8 3 -5 14 -11 8 -19 20 -17
25 3 11 -5 12 -12 1z"/>
<path d="M5686 10183 c-6 -14 -5 -15 5 -6 7 7 10 15 7 18 -3 3 -9 -2 -12 -12z"/>
<path d="M5384 10168 c-3 -4 5 -5 17 -3 30 6 36 14 9 12 -12 -1 -24 -5 -26 -9z"/>
<path d="M5447 10141 c-3 -13 -1 -18 9 -14 7 2 10 11 7 19 -7 19 -10 18 -16
-5z"/>
<path d="M5476 10151 c9 -9 34 -9 34 -1 0 5 -9 8 -20 7 -10 -1 -17 -3 -14 -6z"/>
<path d="M6350 10140 c-8 -5 -10 -10 -5 -10 6 0 17 5 25 10 8 5 11 10 5 10 -5
0 -17 -5 -25 -10z"/>
<path d="M6365 10120 c-4 -6 -4 -14 -1 -17 3 -4 6 -1 6 5 0 7 5 12 11 12 5 0
8 -4 5 -9 -3 -5 0 -14 8 -20 11 -9 15 -8 20 5 4 9 4 19 1 22 -3 3 -5 0 -5 -6
0 -7 -4 -12 -10 -12 -5 0 -9 5 -7 11 3 16 -20 23 -28 9z"/>
<path d="M6476 10083 c-6 -14 -5 -15 5 -6 7 7 10 15 7 18 -3 3 -9 -2 -12 -12z"/>
<path d="M6503 10023 c14 -14 19 -15 29 -4 11 10 10 11 -4 6 -11 -4 -18 -2
-18 4 0 6 -5 11 -12 11 -8 0 -6 -6 5 -17z"/>
<path d="M5105 9950 c-3 -6 1 -7 9 -4 18 7 21 14 7 14 -6 0 -13 -4 -16 -10z"/>
<path d="M6682 9866 c1 -14 5 -23 9 -20 7 4 0 44 -7 44 -2 0 -3 -11 -2 -24z"/>
<path d="M6755 9791 c-3 -5 -2 -12 3 -15 5 -3 9 1 9 9 0 17 -3 19 -12 6z"/>
<path d="M6838 9673 c7 -3 16 -2 19 1 4 3 -2 6 -13 5 -11 0 -14 -3 -6 -6z"/>
<path d="M6955 9489 c-4 -6 -5 -12 -2 -15 2 -3 7 2 10 11 7 17 1 20 -8 4z"/>
<path d="M4650 9449 c0 -5 5 -7 10 -4 6 3 10 8 10 11 0 2 -4 4 -10 4 -5 0 -10
-5 -10 -11z"/>
<path d="M4646 9391 c9 -9 34 -9 34 -1 0 5 -9 8 -20 7 -10 -1 -17 -3 -14 -6z"/>
<path d="M7096 9191 c-4 -5 3 -7 14 -4 23 6 26 13 6 13 -8 0 -17 -4 -20 -9z"/>
<path d="M7105 9070 c3 -5 8 -10 11 -10 2 0 4 5 4 10 0 6 -5 10 -11 10 -5 0
-7 -4 -4 -10z"/>
<path d="M7070 8889 c0 -5 5 -7 10 -4 6 3 10 8 10 11 0 2 -4 4 -10 4 -5 0 -10
-5 -10 -11z"/>
<path d="M4607 8877 c4 -7 7 -22 8 -35 0 -12 3 -22 8 -22 4 0 10 0 13 0 4 0 1
7 -6 15 -9 11 -10 18 -1 29 9 11 7 15 -9 19 -13 3 -18 1 -13 -6z"/>
<path d="M7120 8836 c0 -2 7 -7 16 -10 8 -3 12 -2 9 4 -6 10 -25 14 -25 6z"/>
<path d="M4630 8791 c0 -5 7 -11 14 -14 10 -4 13 -1 9 9 -6 15 -23 19 -23 5z"/>
<path d="M4690 8691 c0 -6 5 -11 11 -11 5 0 7 -4 4 -10 -3 -5 -1 -10 4 -10 16
0 13 16 -4 30 -10 9 -15 9 -15 1z"/>
<path d="M6945 8531 c-3 -5 -2 -12 3 -15 5 -3 9 1 9 9 0 17 -3 19 -12 6z"/>
<path d="M6879 8353 c-13 -17 -13 -17 6 -3 11 8 22 16 24 17 2 2 0 3 -6 3 -6
0 -17 -8 -24 -17z"/>
<path d="M6872 8261 c-11 -7 -11 -9 0 -14 9 -3 15 1 15 9 0 8 -1 14 -1 14 -1
0 -7 -4 -14 -9z"/>
<path d="M6841 8245 c0 -5 3 -16 8 -23 7 -11 9 -10 14 3 4 9 3 14 -2 10 -5 -3
-12 1 -14 7 -3 7 -6 9 -6 3z"/>
<path d="M6823 8212 c-7 -4 -9 -13 -4 -21 6 -9 10 -7 14 8 3 12 4 21 4 21 -1
0 -7 -4 -14 -8z"/>
<path d="M6756 8111 c-3 -5 1 -14 8 -20 12 -10 13 -8 9 8 -6 23 -9 25 -17 12z"/>
<path d="M6320 7396 c0 -8 4 -17 9 -20 5 -4 7 3 4 14 -6 23 -13 26 -13 6z"/>
<path d="M3670 7229 c0 -5 5 -7 10 -4 6 3 10 8 10 11 0 2 -4 4 -10 4 -5 0 -10
-5 -10 -11z"/>
<path d="M7976 6423 c-6 -14 -5 -15 5 -6 7 7 10 15 7 18 -3 3 -9 -2 -12 -12z"/>
<path d="M7980 6346 c0 -2 8 -10 18 -17 15 -13 16 -12 3 4 -13 16 -21 21 -21
13z"/>
<path d="M8135 5031 c-3 -5 -2 -12 3 -15 5 -3 9 1 9 9 0 17 -3 19 -12 6z"/>
<path d="M2060 4131 c0 -6 4 -13 10 -16 6 -3 7 1 4 9 -7 18 -14 21 -14 7z"/>
<path d="M2030 3949 c0 -5 5 -7 10 -4 6 3 10 8 10 11 0 2 -4 4 -10 4 -5 0 -10
-5 -10 -11z"/>
<path d="M8188 3453 c7 -3 16 -2 19 1 4 3 -2 6 -13 5 -11 0 -14 -3 -6 -6z"/>
<path d="M8220 2791 c0 -5 7 -12 16 -15 14 -5 15 -4 4 9 -14 17 -20 19 -20 6z"/>
<path d="M8250 2420 c-9 -6 -10 -10 -3 -10 6 0 15 5 18 10 8 12 4 12 -15 0z"/>
<path d="M8223 2155 c0 -8 4 -12 9 -9 5 3 6 10 3 15 -9 13 -12 11 -12 -6z"/>
<path d="M1910 2009 c0 -5 5 -7 10 -4 6 3 10 8 10 11 0 2 -4 4 -10 4 -5 0 -10
-5 -10 -11z"/>
<path d="M1960 1469 c0 -5 5 -7 10 -4 6 3 10 8 10 11 0 2 -4 4 -10 4 -5 0 -10
-5 -10 -11z"/>
<path d="M1990 1036 c0 -2 8 -10 18 -17 15 -13 16 -12 3 4 -13 16 -21 21 -21
13z"/>
<path d="M8189 928 c-6 -21 -5 -37 2 -32 5 3 7 9 4 14 -3 4 1 11 7 13 10 4 10
6 1 6 -7 1 -13 0 -14 -1z"/>
<path d="M2155 359 c-4 -6 -5 -12 -2 -15 2 -3 7 2 10 11 7 17 1 20 -8 4z"/>
</g>
</svg>
